<svg width="517" height="161" xmlns="http://www.w3.org/2000/svg" ref="svg_canvas" preserveAspectRatio="none" version="1.1" style="background: #ffffff;">
 <g>
  <title>background</title>
  <rect x="-1" y="-1" width="519" height="163" id="canvas_background" fill="#ffffff"/>
 </g>

 <g>
  <title>Layer 1</title>
  <g id="shape_xKFftvV5r4" ref="shape_xKFftvV5r4" key="shape_xKFftvV5r4" transform="translate(267.923583984375,222.86093139648438) scale(1) " display="inline" stroke="null">
   <g display="inline" id="svg_7" stroke="null">
    <rect fill="rgba(0,0,0,0)" width="139.780442" height="133.681666" id="svg_8" stroke="null" y="-206.608909" x="-246.277819"/>
    <g id="svg_2" x="10" y="10" stroke="null" transform="matrix(0.9941223859786987,0,0,1,0,0) ">
     <svg version="1.1" id="svg_54" x="-238.560339" y="-200.741087" width="120.606875" height="113.681666" viewBox="0 0 196.1 184.84" xml:space="preserve" class="style-removed" preserveAspectRatio="none" data-parent="shape_xKFftvV5r4" stroke="null" xmlns="http://www.w3.org/2000/svg" xmlns:xlink="http://www.w3.org/1999/xlink">
      <path d="m167.74,0l-3.92,0.13c-2.37,0.25 -4.65,0.76 -6.81,1.52c-11.1,3.96 -19.06,14.43 -19.39,26.77l-0.03,0l-0.01,23.34l-52.03,-6.03c-4.89,-1.07 -9.96,-1.66 -15.16,-1.66c-38.88,0.01 -70.39,31.52 -70.39,70.39c0,38.87 31.51,70.38 70.38,70.38s70.38,-31.51 70.38,-70.38c0,-2.58 -0.15,-5.13 -0.42,-7.64l0.03,-51.92l17,1.97c0.81,0.28 1.63,0.52 2.47,0.73c2.25,0.56 4.6,0.85 7.02,0.85c16.15,0 29.25,-13.1 29.25,-29.25c-0.01,-15.85 -12.63,-28.73 -28.37,-29.2zm-30.2,93.4c-6.08,-19.39 -20.33,-35.16 -38.71,-43.3l38.73,4.49l-0.02,38.81zm2.83,-41.31l0.01,-10.44c2.2,4.67 5.61,8.66 9.82,11.58l-9.83,-1.14z" fill="#267438" id="svg_55" stroke="null"/>
     </svg>
    </g>
   </g>
  </g>
  <g id="shape_218VL6Ati6" ref="shape_218VL6Ati6" key="shape_218VL6Ati6" transform="translate(214.87338256835938,59.75446701049805) scale(1) " display="inline">
   <g display="inline" id="svg_3" x="10" y="10">
    <svg version="1.1" width="318.36" height="458.72" viewBox="0 0 318.36 458.72" preserveAspectRatio="none" data-parent="shape_218VL6Ati6" id="svg_56" x="-237.930692" y="-202.393949" xmlns="http://www.w3.org/2000/svg" xmlns:xlink="http://www.w3.org/1999/xlink">
     <rect fill="rgba(0,0,0,0)" width="64" height="76" x="63.59" y="191.36" id="svg_59"/>
     <g data-width="63.59" id="svg_57">
      <path d="m122.67,214.68q0,0.06 0,0.25q0,0.19 -0.2,0.32l0,0q-0.12,0.13 -0.12,0.32l0,0l0,0.19q0,0.38 -0.32,0.57l0,0q-0.13,0.13 -0.19,0.26q-0.07,0.12 -0.13,0.25l0,0q-0.13,0.26 -0.32,0.26l0,0q-0.51,0.06 -1.08,0.41q-0.57,0.35 -0.95,0.54l0,0q-0.38,0.19 -0.92,0.51q-0.54,0.32 -0.86,0.51l0,0l-1.97,0.89q-1.15,0.57 -3.06,0.82l0,0q-0.44,0.07 -1.11,0.13q-0.67,0.07 -1.05,0.07l0,0l-3.3,0.06l-3.57,0l-3.56,0q-0.06,0 -1.01,0.19l0,0l-3.82,0.06q-0.38,0 -0.99,0.03q-0.6,0.04 -1.43,0.16l0,0q-0.38,0.07 -1.05,0.23q-0.66,0.16 -1.17,0.22l0,0q-0.64,0.13 -1.11,0.16q-0.48,0.03 -0.8,0.03l0,0q-0.64,0 -0.89,0.32l0,0q-0.83,0.82 -1.65,1.33l0,0q-0.32,0.26 -0.64,0.58q-0.32,0.31 -0.63,0.57l0,0l-1.47,1.21q-1.14,0.89 -1.65,1.4l0,0l-1.4,1.14l-3.12,2.23l-2.09,1.52l-1.78,1.21l-1.21,0.7q-0.19,0.06 -1.27,0.7l0,0l-0.2,0.06q-0.38,0 -0.73,0.35q-0.35,0.35 -0.47,0.48l0,0l-0.19,0.13l-0.64,0.25q-0.06,0 -0.25,0.03q-0.2,0.03 -0.32,-0.09l0,0q-0.13,0 -0.13,-0.45l0,0l0.06,-0.25q0,-0.26 -0.31,-0.45l0,0l-0.13,-0.25q0.13,-0.26 0.22,-0.51q0.1,-0.26 0.22,-0.51l0,0q0.64,-0.89 1.02,-1.27l0,0l1.53,-1.53l0.63,-0.44l1.4,-1.08q1.59,-1.08 1.78,-1.21l0,0l1.66,-1.08q1.14,-0.83 1.27,-0.89l0,0q2.54,-1.66 3.81,-2.55l0,0q0.7,-0.44 1.47,-1.21l0,0l0,-0.06l-0.51,0q-1.78,0.13 -2.67,0.26l0,0q-1.08,0.12 -3.25,0.5l0,0l-1.71,0.13l-0.58,0.19l-0.31,0q-0.77,0 -1.4,-0.44l0,0q-0.26,-0.19 -0.77,-0.45l0,0q-0.38,-0.13 -0.38,-0.38l0,0q-0.06,-0.06 -0.12,-0.13q-0.07,-0.06 -0.07,-0.19l0,0q-0.06,-0.25 0,-0.44l0,0q0.19,-0.38 -0.19,-0.64l0,0l-0.25,-0.13l-0.07,-0.12l0.38,-0.13q-0.12,-0.13 -0.28,-0.38q-0.16,-0.26 -0.41,-0.32l0,0q-0.32,-0.13 -0.13,-0.44l0,0q0.13,-0.32 -0.07,-0.64l0,0l-0.06,-0.19q0,-0.26 0.51,-0.64l0,0q0.38,-0.32 0.32,-0.82l0,0l0,-0.13q0,-0.26 0.25,-0.48q0.26,-0.22 0.45,-0.16l0,0l0.12,-0.06l0.39,-0.25q0,0 0.03,0.03q0.03,0.03 0.03,0.03l0,0q0,-0.19 0.06,-0.19l0,0l0.26,-0.19q0.12,0.06 0.35,0.22q0.22,0.16 0.28,0.35l0,0q0.32,0.7 1.28,0.7l0,0l2.28,-0.06q1.53,-0.13 2.36,-0.26l0,0q0.06,0 0.82,-0.19l0,0l0.13,-0.06q0.19,0.06 0.51,0.06l0,0q0.44,0 0.83,-0.1q0.38,-0.09 0.76,-0.09l0,0q0.95,0 1.46,-0.06l0,0q0.13,0 0.29,-0.07q0.16,-0.06 0.28,-0.06l0,0l3.44,-0.32q0.44,-0.06 0.89,-0.16q0.44,-0.09 0.89,-0.16l0,0q0.32,-0.06 0.6,-0.03q0.29,0.03 0.61,-0.03l0,0q0.44,0 0.7,-0.38l0,0q0.19,-0.32 0.57,-0.64q0.38,-0.32 0.57,-0.51l0,0l1.85,-2.29q0.12,-0.25 0.12,-0.44l0,0q0,-0.32 -0.19,-0.51l0,0l-0.83,-0.57q-0.95,-0.64 -1.14,-0.83l0,0q-0.06,-0.06 -0.13,-0.29q-0.06,-0.22 -0.06,-0.34l0,0l0.13,-0.07q0.44,0.38 1.08,0.35q0.63,-0.03 0.82,-0.03l0,0l-0.19,-0.45q0,-0.25 0.19,-0.25l0,0q0.2,0 1.09,0.25l0,0q-0.13,-0.25 -0.39,-0.5l0,0q0,-0.07 0.04,-0.16q0.03,-0.1 0.09,-0.1l0,0q0.13,0 0.35,-0.06q0.22,-0.07 0.41,0.06l0,0q0,0 0.13,0l0,0l-0.51,-0.38q0,0 0.03,-0.03q0.04,-0.03 0.04,-0.03l0,0q0.57,0 0.82,0.06l0,0q1.66,0.44 2.1,1.84l0,0q0.38,1.02 0.13,1.47l0,0q-0.45,0.95 -0.96,1.65l0,0l-1.71,2.1l-0.64,0.51q0,0 0.03,0.03q0.04,0.03 0.04,0.03l0,0l0.44,0q1.21,-0.06 3.31,-0.32l0,0q0.57,-0.06 1.08,0l0,0q0.25,0 0.44,-0.06q0.19,-0.06 0.45,-0.06l0,0l3.18,-0.26q0.38,-0.06 0.86,-0.13q0.47,-0.06 1.11,-0.06l0,0q0.76,-0.06 2.29,-0.06l0,0q0.32,0 0.86,-0.07q0.54,-0.06 0.86,0l0,0l0.25,0q0.32,0 0.89,-0.09q0.57,-0.1 0.95,-0.16l0,0q2.23,-0.13 3.31,-0.32l0,0q0.32,-0.06 0.7,-0.13q0.38,-0.06 0.95,-0.06l0,0l0.45,0.06q0.76,0 1.08,-0.44l0,0q0.38,-0.45 1.27,-0.83l0,0l0.07,0q0.25,0 0.63,0.26l0,0q0.13,0.06 0.22,0.22q0.1,0.16 0.16,0.22l0,0l0.64,0.45q0.44,0.25 0.32,0.51l0,0l0,0.44q0.63,-0.32 0.44,0.25l0,0q0,0.07 0.1,0.13q0.09,0.07 0.22,0.07l0,0q0.13,0.06 0.25,0.12q0.13,0.07 0.2,0.13l0,0zm-1.66,35.42q0.13,0.51 0.13,0.7l0,0q0,0.44 -0.38,1.33l0,0q0.25,0.2 0.25,0.26q0,0.06 -0.25,0.19l0,0q-0.26,0.13 -0.26,0.38l0,0q-0.06,0.19 -0.19,0.51q-0.12,0.32 0.13,0.64l0,0q0,0 -0.19,0.09q-0.19,0.1 0,0.35l0,0q0.06,0 -0.13,0.38l0,0q-0.25,0 -0.32,-0.06l0,0l-0.44,0q0.19,0.32 0.19,0.44l0,0q0,0.19 -0.45,0.26l0,0l0,0.13q0.32,0.38 -0.25,0.57l0,0q-0.25,0.12 -0.38,0.25l0,0q0,0 -0.13,0.13l0,0q-1.4,0.7 -1.78,0.95l0,0q-0.19,0.07 -0.41,0.29q-0.23,0.22 -0.42,0.35l0,0q-0.12,0.06 -0.63,0.25l0,0l-0.38,0.19l-0.89,0.39l-1.66,0.31l-4.07,0.51q-2.03,0.26 -3.05,0.32l0,0l-1.65,0q-0.32,0 -0.8,0.03q-0.47,0.03 -1.11,-0.03l0,0l-0.32,0q-0.44,0 -0.86,0.1q-0.41,0.09 -0.79,0.09l0,0q-0.38,0 -1.4,-0.13l0,0l-0.13,0q-0.25,0.13 -0.76,0.13l0,0q-0.51,0 -0.83,-0.06l0,0l-2.16,0.06l-1.65,0.13q-0.13,0 -0.29,0.03q-0.16,0.03 -0.35,-0.03l0,0l-1.33,0q-2.17,-0.13 -3.37,-0.13l0,0q-0.51,0 -0.99,0.06q-0.48,0.07 -0.99,0.07l0,0q-0.25,0.06 -0.57,0l0,0l-3.05,-0.19q-0.51,-0.07 -1.11,0.19q-0.61,0.25 -1.12,0.57l0,0q-0.76,0.38 -1.14,0.38l0,0q-0.32,0 -0.7,-0.19l0,0q-0.19,-0.13 -0.41,-0.22q-0.23,-0.1 -0.48,-0.29l0,0q-0.45,-0.32 -0.45,-1.08l0,0q0,-0.13 0.07,-0.32q0.06,-0.19 0.06,-0.31l0,0q0,-0.51 -0.38,-0.64l0,0q-0.19,-0.13 -0.7,-0.25l0,0q-0.64,-0.2 -0.25,-0.77l0,0q0.06,-0.06 0.06,-0.16q0,-0.09 -0.06,-0.16l0,0q-0.13,-0.25 -0.13,-0.44l0,0q0,-0.38 0.25,-0.51l0,0l0.38,-0.32q0.26,-0.44 1.28,-0.82l0,0q0.06,-0.07 0.31,-0.07l0,0l0.2,0q0.69,0 1.39,-0.51l0,0q0.13,-0.12 0.29,-0.19q0.16,-0.06 0.29,-0.12l0,0q0.19,0 0.19,0.06l0,0q0.19,0.76 0.19,0.83l0,0q0,0.38 0.06,0.44q0.07,0.06 0.38,0.06l0,0l1.53,-0.19l1.4,-0.12q0.32,0 0.38,-0.07q0.06,-0.06 0,-0.38l0,0l-0.38,-1.65q0,-0.26 0.06,-0.38l0,0q0.26,-1.53 0.32,-2.23l0,0q0.13,-0.57 0.16,-0.98q0.03,-0.42 0.03,-0.67l0,0q0,-1.66 0.06,-2.48l0,0q0,-0.77 0.13,-2.16l0,0l0,-2.36q0.13,-2.67 0.13,-3.94l0,0q0,-2.8 -0.32,-4.13l0,0q-0.06,-0.26 -0.06,-0.64l0,0q0,-0.06 0.12,-0.06l0,0l0.2,0.12l0.06,-0.19l0.63,-0.06l0.07,-0.44q0.38,0 0.82,0.57l0,0q1.15,1.59 1.21,2.99l0,0q0,0.82 0.07,1.43q0.06,0.6 0.12,1.05l0,0q0.07,0.31 0.16,0.57q0.1,0.25 0.16,0.44l0,0q0.38,1.59 0.32,3.06l0,0l0,0.44l0.06,1.72l-0.06,1.65q0,1.34 -0.06,2.04l0,0q0,0.63 -0.13,1.65l0,0l0.06,0.51q0.07,0.57 0.03,1.14q-0.03,0.58 0.04,1.15l0,0q0,0.51 -0.13,0.7q-0.13,0.19 -0.57,0.44l0,0q-0.19,0.07 -0.58,0.32l0,0l-0.06,0.19l0.26,0.13l2.16,-0.26l1.84,-0.19l2.1,-0.38l2.03,-0.13q0.77,-0.12 1.09,-0.12l0,0q1.9,-0.26 2.86,-0.32l0,0q0.12,-0.06 0.32,-0.03q0.19,0.03 0.31,0.03l0,0q0.32,0 0.86,-0.1q0.54,-0.09 0.92,-0.16l0,0q-0.12,-0.63 -0.25,-0.95l0,0q-0.13,-0.38 -0.13,-0.57l0,0q0,-0.32 0.13,-0.96l0,0q0.25,-1.78 0.25,-2.67l0,0l-0.57,-2.6l-0.25,-1.28q0.06,-0.06 0.06,-0.31l0,0l-0.38,-1.72q-0.06,-0.64 -0.13,-1.24q-0.06,-0.6 -0.13,-1.24l0,0q0,-0.32 -0.06,-0.51l0,0q-0.19,0 -0.48,0.03q-0.28,0.03 -0.66,0.16l0,0q-1.66,0.26 -2.36,0.51l0,0q-0.57,0.19 -1.2,0.22q-0.64,0.04 -0.96,0.04l0,0l-1.14,0.06l-0.26,0.06q-0.25,0.26 -0.25,0.26l0,0q-0.57,-0.19 -0.64,-0.32l0,0q-0.38,-0.38 -1.17,-0.83q-0.8,-0.44 -1.12,-0.7l0,0q-0.57,-0.44 -1.14,-1.08l0,0q-0.26,-0.25 0.19,-0.57l0,0q0.25,-0.19 0.51,-0.35q0.25,-0.16 0.51,-0.29l0,0l-0.32,-0.44l1.14,-0.13l1.72,-0.25l2.23,-0.32q0.63,-0.06 2.03,-0.32l0,0l1.97,-0.32q0.64,-0.06 1.46,-0.32l0,0q0.13,0 0.13,-0.19l0,0q-0.06,-0.82 -0.32,-2.48l0,0l0,-0.38q-0.06,-0.12 -0.31,-0.57l0,0q-0.32,-0.38 -0.83,-1.27l0,0q0,-0.26 0.13,-0.38l0,0q0.06,-0.07 0.19,-0.03q0.12,0.03 0.19,0.03l0,0l0.57,0.25q0.38,0.13 0.38,-0.32l0,0l0,-0.31q0.77,0 1.08,-0.07l0,0q0.13,0 0.26,-0.13l0,0q0.19,-0.38 0.7,-0.19l0,0l0.31,-0.06q0.58,-0.44 0.96,-0.13l0,0q0.32,0.19 0.79,0.29q0.48,0.09 0.67,0.16l0,0q2.04,0.25 2.8,0.44l0,0q0.19,0 0.32,0.26l0,0l0.32,1.33q0,0.13 0.06,0.29q0.06,0.16 0.06,0.35l0,0l0,1.27l0,0.13q0,0.19 0.13,0.38q0.13,0.19 0.25,0.19l0,0l1.53,0.13q0.64,0.06 1.84,0.06l0,0q1.53,0 2.29,-0.13l0,0q0.13,0 0.29,0.07q0.16,0.06 0.29,0.06l0,0q0.38,0.06 1.14,0.06l0,0q0.32,0.07 0.83,0.04q0.51,-0.04 0.76,-0.04l0,0q0.32,0.07 0.67,0.16q0.35,0.1 0.73,0.16l0,0l0.06,0.19q-0.06,0.13 -0.22,0.38q-0.16,0.26 -0.35,0.39l0,0q-0.32,0.31 -0.95,0.82l0,0q-0.96,0.64 -1.08,0.7l0,0q-0.13,0.07 -0.32,0.03q-0.19,-0.03 -0.32,0.04l0,0l-0.38,0l-0.83,0.5q-0.13,0.07 -0.19,0.2q-0.06,0.12 -0.13,0.19l0,0q-0.19,0.12 -0.44,0.47q-0.26,0.35 -0.64,0.35l0,0q-0.25,0 -0.57,0.13q-0.32,0.13 -0.51,0.19l0,0l-0.63,0.13q-0.13,0.06 -0.29,0.13q-0.16,0.06 -0.35,0.12l0,0l-1.59,0q-0.38,0 -0.38,0.32l0,0q0,0.19 -0.07,0.38q-0.06,0.19 -0.06,0.38l0,0l0,0.26q0,0.57 0.38,0.82l0,0q0.38,0.26 0.07,0.64l0,0q-0.19,0.19 -0.19,0.64l0,0l0,2.03l0.06,1.72l-0.06,0.76l-0.13,1.4q-0.07,0.7 -0.38,1.4l0,0l-0.38,1.14q-0.2,0.39 -0.26,0.67q-0.06,0.29 -0.13,0.48l0,0l-0.31,0.95l0.89,0q2.54,-0.12 3.87,-0.25l0,0q1.34,-0.07 3.69,-0.32l0,0q0.26,-0.06 0.51,-0.03q0.26,0.03 0.51,-0.03l0,0q0.06,0 0.45,-0.19l0,0l0.57,-0.26q0.13,-0.13 0.13,-0.19l0,0q0.12,-0.38 0.63,-0.25l0,0q0.38,0.12 0.45,0.12l0,0q0.31,0 0.5,-0.31l0,0q0.77,0 1.21,-0.58l0,0l0.26,0.19q0.25,-0.25 0.25,-0.25l0,0z" fill="#FFFFFF" stroke="#FFFFFF" stroke-width="0.106" data-glyph-w="63.59" data-glyph-h="76.308" data-glyph-ascender="63.59" data-glyph-descender="-12.718" id="svg_58"/>
     </g>
    </svg>
   </g>
  </g>
  <g id="shape_TRmyeZIcVA" ref="shape_TRmyeZIcVA" key="shape_TRmyeZIcVA" transform="translate(345.2020263671875,276.3162841796875) scale(1) " display="inline">
   <g display="inline" id="svg_4">
    <svg version="1.1" width="328.6" height="136.9" viewBox="0 0 328.59999999999997 136.89999999999998" preserveAspectRatio="none" data-parent="shape_TRmyeZIcVA" id="svg_60" x="-204.873269" y="-200.741089" xmlns="http://www.w3.org/2000/svg" xmlns:xlink="http://www.w3.org/1999/xlink">
     <rect fill="rgba(0,0,0,0)" width="252" height="22" x="19.15" y="57.45" id="svg_86"/>
     <g data-width="251.383097" id="svg_61">
      <path d="m7.48,58.65q2.86,0 4.89,2.03l0,0q2.02,2.03 2.02,4.89l0,0q0,2.87 -2.02,4.89l0,0q-2.03,2.03 -4.89,2.03l0,0q-2.87,0 -4.89,-2.03l0,0q-2.03,-2.02 -2.03,-4.89l0,0q0,-2.86 2.03,-4.89l0,0q2.02,-2.03 4.89,-2.03l0,0zm0,1.44l0,0q-2.27,0 -3.88,1.6l0,0q-1.61,1.6 -1.61,3.88l0,0q0,2.27 1.61,3.88l0,0q1.61,1.61 3.88,1.61l0,0q2.27,0 3.88,-1.61l0,0q1.6,-1.61 1.6,-3.88l0,0q0,-2.28 -1.6,-3.88l0,0q-1.61,-1.6 -3.88,-1.6z" fill="#2D7827" stroke="#2D7827" stroke-width="0.032" data-glyph-w="14.951587" data-glyph-h="19.95415" data-glyph-ascender="16.045605" data-glyph-descender="-3.908545" id="svg_85"/>
      <path d="m24.95159,69.69l0,-10.8l1.43,0l0,13.35l-1.37,0l-7.69,-10.8l0,10.8l-1.43,0l0,-13.35l1.36,0l7.7,10.8z" fill="#2D7827" stroke="#2D7827" stroke-width="0.032" data-glyph-w="12.361475" data-glyph-h="19.95415" data-glyph-ascender="16.045605" data-glyph-descender="-3.908545" id="svg_84"/>
      <path d="m29.68306,58.89l0,11.92l6.67,0l0,1.43l-8.1,0l0,-13.35l1.43,0z" fill="#2D7827" stroke="#2D7827" stroke-width="0.032" data-glyph-w="9.603052" data-glyph-h="19.95415" data-glyph-ascender="16.045605" data-glyph-descender="-3.908545" id="svg_83"/>
      <path d="m39.28612,72.24l0,-13.35l-1.43,0l0,13.35l1.43,0z" fill="#2D7827" stroke="#2D7827" stroke-width="0.032" data-glyph-w="3.300757" data-glyph-h="19.95415" data-glyph-ascender="16.045605" data-glyph-descender="-3.908545" id="svg_82"/>
      <path d="m50.21687,69.69l0,-10.8l1.43,0l0,13.35l-1.37,0l-7.69,-10.8l0,10.8l-1.43,0l0,-13.35l1.36,0l7.7,10.8z" fill="#2D7827" stroke="#2D7827" stroke-width="0.032" data-glyph-w="12.361475" data-glyph-h="19.95415" data-glyph-ascender="16.045605" data-glyph-descender="-3.908545" id="svg_81"/>
      <path d="m54.94835,60.32l0,4.54l8.1,0l0,1.43l-8.1,0l0,4.52l8.1,0l0,1.43l-9.53,0l0,-13.35l9.53,0l0,1.43l-8.1,0z" fill="#2D7827" stroke="#2D7827" stroke-width="0.032" data-glyph-w="11.033691" data-glyph-h="19.95415" data-glyph-ascender="16.045605" data-glyph-descender="-3.908545" id="svg_80"/>
      <path fill="#2D7827" stroke="#2D7827" stroke-width="0.032" data-glyph-w="7.6217" data-glyph-h="19.15" data-glyph-ascender="16.852" data-glyph-descender="-2.298" id="svg_79"/>
      <path d="m73.60373,60.32l0,4.54l8.1,0l0,1.43l-8.1,0l0,4.52l8.1,0l0,1.43l-9.53,0l0,-13.35l9.53,0l0,1.43l-8.1,0z" fill="#2D7827" stroke="#2D7827" stroke-width="0.032" data-glyph-w="11.033691" data-glyph-h="19.95415" data-glyph-ascender="16.045605" data-glyph-descender="-3.908545" id="svg_78"/>
      <path d="m88.20743,65.31l-5.75,6.93l1.86,0l4.82,-5.81l4.82,5.81l1.85,0l-5.74,-6.93l5.32,-6.42l-1.86,0l-4.4,5.3l-4.39,-5.3l-1.85,0l5.32,6.42z" fill="#2D7827" stroke="#2D7827" stroke-width="0.032" data-glyph-w="13.72666" data-glyph-h="19.95415" data-glyph-ascender="16.045605" data-glyph-descender="-3.908545" id="svg_77"/>
      <path d="m105.51409,66.29l-7.15,0l0,5.95l-1.43,0l0,-13.35l1.43,0l0,5.97l7.15,0l0,-5.97l1.43,0l0,13.35l-1.43,0l0,-5.95z" fill="#2D7827" stroke="#2D7827" stroke-width="0.032" data-glyph-w="11.884595" data-glyph-h="19.95415" data-glyph-ascender="16.045605" data-glyph-descender="-3.908545" id="svg_76"/>
      <path d="m110.24868,72.24l0,-13.35l-1.43,0l0,13.35l1.43,0z" fill="#2D7827" stroke="#2D7827" stroke-width="0.032" data-glyph-w="3.300757" data-glyph-h="19.95415" data-glyph-ascender="16.045605" data-glyph-descender="-3.908545" id="svg_75"/>
      <path d="m118.07944,60.32l-4.53,0l0,4.29l4.53,0q0.89,0 1.52,-0.62l0,0q0.62,-0.63 0.62,-1.52l0,0q0,-0.9 -0.62,-1.52l0,0q-0.63,-0.63 -1.52,-0.63l0,0zm0.48,5.72l-5.01,0l0,4.77l5.01,0q0.98,0 1.68,-0.69l0,0q0.7,-0.7 0.7,-1.69l0,0q0,-0.98 -0.7,-1.68l0,0q-0.7,-0.71 -1.68,-0.71l0,0zm0,6.2l-6.44,0l0,-13.35l5.96,0q1.48,0 2.53,1.05l0,0q1.04,1.05 1.04,2.53l0,0q0,1.48 -1.04,2.53l0,0q-0.07,0.06 -0.14,0.12l0,0q0.42,0.25 0.78,0.62l0,0q1.12,1.11 1.12,2.69l0,0q0,1.58 -1.12,2.7l0,0q-1.11,1.11 -2.69,1.11l0,0z" fill="#2D7827" stroke="#2D7827" stroke-width="0.032" data-glyph-w="11.753687" data-glyph-h="19.95415" data-glyph-ascender="16.045605" data-glyph-descender="-3.908545" id="svg_74"/>
      <path d="m125.30313,72.24l0,-13.35l-1.43,0l0,13.35l1.43,0z" fill="#2D7827" stroke="#2D7827" stroke-width="0.032" data-glyph-w="3.300757" data-glyph-h="19.95415" data-glyph-ascender="16.045605" data-glyph-descender="-3.908545" id="svg_73"/>
      <path d="m131.08388,72.24l0,-11.92l-4.29,0l0,-1.43l10.02,0l0,1.43l-4.3,0l0,11.92l-1.43,0z" fill="#2D7827" stroke="#2D7827" stroke-width="0.032" data-glyph-w="11.136548" data-glyph-h="19.95415" data-glyph-ascender="16.045605" data-glyph-descender="-3.908545" id="svg_72"/>
      <path d="m139.74044,72.24l0,-13.35l-1.43,0l0,13.35l1.43,0z" fill="#2D7827" stroke="#2D7827" stroke-width="0.032" data-glyph-w="3.300757" data-glyph-h="19.95415" data-glyph-ascender="16.045605" data-glyph-descender="-3.908545" id="svg_71"/>
      <path d="m148.15119,58.65q2.86,0 4.89,2.03l0,0q2.02,2.03 2.02,4.89l0,0q0,2.87 -2.02,4.89l0,0q-2.03,2.03 -4.89,2.03l0,0q-2.87,0 -4.89,-2.03l0,0q-2.03,-2.02 -2.03,-4.89l0,0q0,-2.86 2.03,-4.89l0,0q2.02,-2.03 4.89,-2.03l0,0zm0,1.44l0,0q-2.27,0 -3.88,1.6l0,0q-1.61,1.6 -1.61,3.88l0,0q0,2.27 1.61,3.88l0,0q1.61,1.61 3.88,1.61l0,0q2.27,0 3.88,-1.61l0,0q1.6,-1.61 1.6,-3.88l0,0q0,-2.28 -1.6,-3.88l0,0q-1.61,-1.6 -3.88,-1.6z" fill="#2D7827" stroke="#2D7827" stroke-width="0.032" data-glyph-w="14.951587" data-glyph-h="19.95415" data-glyph-ascender="16.045605" data-glyph-descender="-3.908545" id="svg_70"/>
      <path d="m165.62277,69.69l0,-10.8l1.43,0l0,13.35l-1.37,0l-7.69,-10.8l0,10.8l-1.43,0l0,-13.35l1.36,0l7.7,10.8z" fill="#2D7827" stroke="#2D7827" stroke-width="0.032" data-glyph-w="12.361475" data-glyph-h="19.95415" data-glyph-ascender="16.045605" data-glyph-descender="-3.908545" id="svg_69"/>
      <path fill="#2D7827" stroke="#2D7827" stroke-width="0.032" data-glyph-w="7.6217" data-glyph-h="19.15" data-glyph-ascender="16.852" data-glyph-descender="-2.298" id="svg_68"/>
      <path d="m200.80594,60.09q1.51,0 2.54,0.73l0,0q1.03,0.73 1.03,1.76l0,0l1.43,0q0,-1.63 -1.43,-2.77l0,0q-1.45,-1.16 -3.57,-1.16l0,0q-2.13,0 -3.54,1l0,0q-1.47,1.04 -1.47,2.7l0,0q0,1.78 1.41,2.65l0,0q0.95,0.58 3.12,0.95l0,0q2.44,0.43 3.12,0.71l0,0q1.41,0.58 1.41,1.89l0,0q0,1.13 -1.19,1.83l0,0q-1.13,0.68 -2.86,0.68l0,0q-1.77,0 -2.93,-0.91l0,0q-1.13,-0.89 -1.13,-2.2l0,0l-1.43,0q0,1.91 1.53,3.21l0,0q1.58,1.33 3.96,1.33l0,0q2.36,0 3.87,-1.03l0,0q1.61,-1.09 1.61,-2.91l0,0q0,-1.83 -1.41,-2.74l0,0q-0.98,-0.63 -3.12,-1.01l0,0q-2.53,-0.46 -3.11,-0.68l0,0q-1.42,-0.55 -1.42,-1.77l0,0q0,-1.05 1.05,-1.67l0,0q1,-0.59 2.53,-0.59l0,0z" fill="#2D7827" stroke="#2D7827" stroke-width="0.032" data-glyph-w="12.090308" data-glyph-h="19.95415" data-glyph-ascender="16.045605" data-glyph-descender="-3.908545" id="svg_67"/>
      <path d="m212.99626,66.53l0,5.71l1.43,0l0,-5.73l5.96,-7.62l-1.81,0l-4.87,6.23l-4.86,-6.23l-1.81,0l5.96,7.64z" fill="#2D7827" stroke="#2D7827" stroke-width="0.032" data-glyph-w="13.72666" data-glyph-h="19.95415" data-glyph-ascender="16.045605" data-glyph-descender="-3.908545" id="svg_66"/>
      <path d="m226.62291,60.09q1.51,0 2.54,0.73l0,0q1.03,0.73 1.03,1.76l0,0l1.43,0q0,-1.63 -1.43,-2.77l0,0q-1.45,-1.16 -3.57,-1.16l0,0q-2.13,0 -3.54,1l0,0q-1.47,1.04 -1.47,2.7l0,0q0,1.78 1.41,2.65l0,0q0.95,0.58 3.12,0.95l0,0q2.44,0.43 3.12,0.71l0,0q1.41,0.58 1.41,1.89l0,0q0,1.13 -1.19,1.83l0,0q-1.13,0.68 -2.86,0.68l0,0q-1.77,0 -2.93,-0.91l0,0q-1.13,-0.89 -1.13,-2.2l0,0l-1.43,0q0,1.91 1.53,3.21l0,0q1.58,1.33 3.96,1.33l0,0q2.36,0 3.87,-1.03l0,0q1.61,-1.09 1.61,-2.91l0,0q0,-1.83 -1.41,-2.74l0,0q-0.98,-0.63 -3.12,-1.01l0,0q-2.53,-0.46 -3.11,-0.68l0,0q-1.42,-0.55 -1.42,-1.77l0,0q0,-1.05 1.05,-1.67l0,0q1,-0.59 2.53,-0.59l0,0z" fill="#2D7827" stroke="#2D7827" stroke-width="0.032" data-glyph-w="12.090308" data-glyph-h="19.95415" data-glyph-ascender="16.045605" data-glyph-descender="-3.908545" id="svg_65"/>
      <path d="m237.51323,72.24l0,-11.92l-4.29,0l0,-1.43l10.02,0l0,1.43l-4.3,0l0,11.92l-1.43,0z" fill="#2D7827" stroke="#2D7827" stroke-width="0.032" data-glyph-w="11.136548" data-glyph-h="19.95415" data-glyph-ascender="16.045605" data-glyph-descender="-3.908545" id="svg_64"/>
      <path d="m246.16977,60.32l0,4.54l8.1,0l0,1.43l-8.1,0l0,4.52l8.1,0l0,1.43l-9.53,0l0,-13.35l9.53,0l0,1.43l-8.1,0z" fill="#2D7827" stroke="#2D7827" stroke-width="0.032" data-glyph-w="11.033691" data-glyph-h="19.95415" data-glyph-ascender="16.045605" data-glyph-descender="-3.908545" id="svg_63"/>
      <path d="m262.07346,68.19l-4.87,-6.83l0,10.88l-1.43,0l0,-13.35l1.43,0l5.48,7.69l5.48,-7.69l1.43,0l0,13.35l-1.43,0l0,-10.88l-4.88,6.83l-1.21,0z" fill="#2D7827" stroke="#2D7827" stroke-width="0.032" data-glyph-w="15.699634" data-glyph-h="19.95415" data-glyph-ascender="16.045605" data-glyph-descender="-3.908545" id="svg_62"/>
     </g>
    </svg>
   </g>
  </g>
  <g id="shape_xK2UI9vhXx" ref="shape_xK2UI9vhXx" key="shape_xK2UI9vhXx" transform="translate(294.0054016113281,64.34403991699219) scale(1) " display="inline">
   <g display="inline" id="svg_5" x="10" y="10">
    <svg version="1.1" width="629.88" height="454.76" viewBox="0 0 629.88 454.76" preserveAspectRatio="none" data-parent="shape_xK2UI9vhXx" id="svg_87" x="-225.534151" y="-204.873256" xmlns="http://www.w3.org/2000/svg" xmlns:xlink="http://www.w3.org/1999/xlink">
     <rect fill="rgba(0,0,0,0)" width="378" height="75" x="62.97" y="189.88" id="svg_95"/>
     <g data-width="377.82" id="svg_88">
      <path d="m121.47,212.59q0,0.06 0,0.25q0,0.19 -0.19,0.31l0,0q-0.13,0.13 -0.13,0.32l0,0l0,0.19q0,0.38 -0.31,0.56l0,0q-0.13,0.13 -0.19,0.26q-0.06,0.12 -0.13,0.25l0,0q-0.12,0.25 -0.31,0.25l0,0q-0.5,0.06 -1.07,0.41q-0.57,0.35 -0.95,0.53l0,0q-0.37,0.19 -0.91,0.51q-0.53,0.31 -0.85,0.5l0,0l-1.95,0.88q-1.13,0.57 -3.02,0.82l0,0q-0.44,0.06 -1.11,0.13q-0.66,0.06 -1.03,0.06l0,0l-3.28,0.06l-3.52,0l-3.53,0q-0.06,0 -1.01,0.19l0,0l-3.78,0.07q-0.37,0 -0.97,0.03q-0.6,0.03 -1.42,0.15l0,0q-0.38,0.07 -1.04,0.22q-0.66,0.16 -1.16,0.23l0,0q-0.63,0.12 -1.11,0.15q-0.47,0.03 -0.78,0.03l0,0q-0.63,0 -0.88,0.32l0,0q-0.82,0.82 -1.64,1.32l0,0q-0.32,0.25 -0.63,0.57q-0.32,0.31 -0.63,0.56l0,0l-1.45,1.2q-1.13,0.88 -1.64,1.39l0,0l-1.38,1.13l-3.09,2.2l-2.08,1.52l-1.76,1.19l-1.19,0.69q-0.19,0.07 -1.26,0.7l0,0l-0.19,0.06q-0.38,0 -0.73,0.35q-0.34,0.34 -0.47,0.47l0,0l-0.19,0.12l-0.63,0.26q-0.06,0 -0.25,0.03q-0.19,0.03 -0.32,-0.1l0,0q-0.12,0 -0.12,-0.44l0,0l0.06,-0.25q0,-0.25 -0.31,-0.44l0,0l-0.13,-0.25q0.13,-0.25 0.22,-0.51q0.1,-0.25 0.22,-0.5l0,0q0.63,-0.88 1.01,-1.26l0,0l1.51,-1.51l0.63,-0.44l1.39,-1.07q1.57,-1.07 1.76,-1.2l0,0l1.64,-1.07q1.13,-0.82 1.26,-0.88l0,0q2.51,-1.64 3.77,-2.52l0,0q0.7,-0.44 1.45,-1.19l0,0l0,-0.07l-0.5,0q-1.76,0.13 -2.65,0.25l0,0q-1.07,0.13 -3.21,0.51l0,0l-1.7,0.12l-0.56,0.19l-0.32,0q-0.76,0 -1.38,-0.44l0,0q-0.26,-0.19 -0.76,-0.44l0,0q-0.38,-0.12 -0.38,-0.38l0,0q-0.06,-0.06 -0.12,-0.12q-0.07,-0.07 -0.07,-0.19l0,0q-0.06,-0.25 0,-0.44l0,0q0.19,-0.38 -0.19,-0.63l0,0l-0.25,-0.13l-0.06,-0.12l0.38,-0.13q-0.13,-0.13 -0.29,-0.38q-0.15,-0.25 -0.41,-0.31l0,0q-0.31,-0.13 -0.12,-0.44l0,0q0.12,-0.32 -0.06,-0.63l0,0l-0.07,-0.19q0,-0.25 0.51,-0.63l0,0q0.37,-0.32 0.31,-0.82l0,0l0,-0.13q0,-0.25 0.25,-0.47q0.25,-0.22 0.44,-0.16l0,0l0.13,-0.06l0.38,-0.25q0,0 0.03,0.03q0.03,0.03 0.03,0.03l0,0q0,-0.19 0.06,-0.19l0,0l0.26,-0.19q0.12,0.07 0.34,0.22q0.22,0.16 0.28,0.35l0,0q0.32,0.69 1.26,0.69l0,0l2.27,-0.06q1.51,-0.13 2.33,-0.25l0,0q0.06,0 0.82,-0.19l0,0l0.13,-0.06q0.18,0.06 0.5,0.06l0,0q0.44,0 0.82,-0.09q0.38,-0.1 0.75,-0.1l0,0q0.95,0 1.45,-0.06l0,0q0.13,0 0.29,-0.06q0.15,-0.07 0.28,-0.07l0,0l3.4,-0.31q0.44,-0.07 0.88,-0.16q0.44,-0.09 0.88,-0.16l0,0q0.32,-0.06 0.6,-0.03q0.28,0.03 0.6,-0.03l0,0q0.44,0 0.69,-0.38l0,0q0.19,-0.31 0.57,-0.63q0.38,-0.31 0.56,-0.5l0,0l1.83,-2.27q0.13,-0.25 0.13,-0.44l0,0q0,-0.31 -0.19,-0.5l0,0l-0.82,-0.57q-0.95,-0.62999 -1.13,-0.81999l0,0q-0.07,-0.06 -0.13,-0.28q-0.06,-0.22 -0.06,-0.35l0,0l0.12,-0.06q0.44,0.38 1.07,0.34q0.63,-0.03 0.82,-0.03l0,0l-0.19,-0.44q0,-0.25 0.19,-0.25l0,0q0.19,0 1.07,0.25l0,0q-0.12,-0.25 -0.38,-0.5l0,0q0,-0.06 0.04,-0.16q0.03,-0.09 0.09,-0.09l0,0q0.13,0 0.35,-0.07q0.22,-0.06 0.41,0.07l0,0q0,0 0.12,0l0,0l-0.5,-0.38q0,0 0.03,-0.03q0.03,-0.03 0.03,-0.03l0,0q0.57,0 0.82,0.06l0,0q1.64,0.44 2.08,1.83l0,0q0.38,1 0.12,1.44l0,0q-0.44,0.95 -0.94,1.64l0,0l-1.7,2.08l-0.63,0.5q0,0 0.03,0.03q0.03,0.04 0.03,0.04l0,0l0.44,0q1.2,-0.07 3.28,-0.32l0,0q0.56,-0.06 1.07,0l0,0q0.25,0 0.44,-0.06q0.19,-0.07 0.44,-0.07l0,0l3.15,-0.25q0.38,-0.06 0.85,-0.12q0.47,-0.07 1.1,-0.07l0,0q0.76,-0.06 2.27,-0.06l0,0q0.31,0 0.85,-0.06q0.53,-0.06 0.85,0l0,0l0.25,0q0.31,0 0.88,-0.1q0.57,-0.09 0.95,-0.15l0,0q2.2,-0.13 3.27,-0.32l0,0q0.31,-0.06 0.69,-0.12q0.38,-0.07 0.95,-0.07l0,0l0.44,0.07q0.75,0 1.07,-0.45l0,0q0.38,-0.44 1.26,-0.81l0,0l0.06,0q0.25,0 0.63,0.25l0,0q0.13,0.06 0.22,0.22q0.1,0.16 0.16,0.22l0,0l0.63,0.44q0.44,0.25 0.31,0.5l0,0l0,0.44q0.63,-0.31 0.44,0.26l0,0q0,0.06 0.1,0.12q0.09,0.06 0.22,0.06l0,0q0.12,0.07 0.25,0.13q0.13,0.06 0.19,0.13l0,0l0,-0.00001zm-1.64,35.07q0.13,0.5 0.13,0.69l0,0q0,0.44 -0.38,1.33l0,0q0.25,0.18001 0.25,0.25q0,0.06 -0.25,0.19l0,0q-0.25,0.12 -0.25,0.37l0,0q-0.06,0.19 -0.19,0.51q-0.13,0.31 0.13,0.63l0,0q0,0 -0.19,0.09q-0.19,0.1 0,0.35l0,0q0.06,0 -0.13,0.38l0,0q-0.25,0 -0.31,-0.07l0,0l-0.45,0q0.19,0.32 0.19,0.44l0,0q0,0.19 -0.44,0.26l0,0l0,0.12q0.32,0.38 -0.25,0.57l0,0q-0.25,0.13 -0.38,0.25l0,0q0,0 -0.12,0.13l0,0q-1.39,0.69 -1.77,0.94l0,0q-0.18,0.06 -0.41,0.28q-0.22,0.23 -0.4,0.35l0,0q-0.13,0.06 -0.63,0.25l0,0l-0.38,0.19l-0.88,0.38l-1.64,0.31l-4.03,0.51q-2.02,0.25 -3.02,0.31l0,0l-1.64,0q-0.32,0 -0.79,0.03q-0.47,0.04 -1.1,-0.03l0,0l-0.31,0q-0.45,0 -0.85,0.1q-0.41,0.09 -0.79,0.09l0,0q-0.38,0 -1.39,-0.12l0,0l-0.12,0q-0.26,0.12 -0.76,0.12l0,0q-0.5,0 -0.82,-0.06l0,0l-2.14,0.06l-1.64,0.13q-0.12,0 -0.28,0.03q-0.16,0.03 -0.35,-0.03l0,0l-1.32,0q-2.14,-0.13 -3.34,-0.13l0,0q-0.5,0 -0.97,0.07q-0.47,0.06 -0.98,0.06l0,0q-0.25,0.06 -0.56,0l0,0l-3.03,-0.19q-0.5,-0.06 -1.1,0.19q-0.6,0.25 -1.1,0.56l0,0q-0.76,0.38 -1.13,0.38l0,0q-0.32,0 -0.7,-0.19l0,0q-0.19,-0.12 -0.41,-0.22q-0.22,-0.09 -0.47,-0.28l0,0q-0.44,-0.31 -0.44,-1.07l0,0q0,-0.13 0.06,-0.32q0.07,-0.18 0.07,-0.31l0,0q0,-0.5 -0.38,-0.63l0,0q-0.19,-0.13 -0.69,-0.25l0,0q-0.63,-0.19 -0.26,-0.76l0,0q0.07,-0.06 0.07,-0.15q0,-0.1 -0.07,-0.16l0,0q-0.12,-0.25 -0.12,-0.44l0,0q0,-0.38 0.25,-0.51l0,0l0.38,-0.31q0.25,-0.44 1.26,-0.82l0,0q0.06,-0.06 0.31,-0.06l0,0l0.19,0q0.69,0 1.39,-0.51l0,0q0.12,-0.12 0.28,-0.19q0.16,-0.06 0.28,-0.12l0,0q0.19,0 0.19,0.06l0,0q0.19,0.76 0.19,0.82l0,0q0,0.38 0.06,0.44q0.07,0.06 0.38,0.06l0,0l1.51,-0.19l1.39,-0.12q0.31,0 0.38,-0.06q0.06,-0.07 0,-0.38l0,0l-0.38,-1.64q0,-0.25 0.06,-0.38l0,0q0.25,-1.50999 0.32,-2.19999l0,0q0.12,-0.57 0.15,-0.98q0.04,-0.41 0.04,-0.66l0,0q0,-1.64 0.06,-2.45l0,0q0,-0.76 0.12,-2.15l0,0l0,-2.33q0.13,-2.64 0.13,-3.9l0,0q0,-2.77001 -0.31,-4.09l0,0q-0.07,-0.25 -0.07,-0.63l0,0q0,-0.06 0.13,-0.06l0,0l0.19,0.12l0.06,-0.19l0.63,-0.06l0.06,-0.44q0.38,0 0.82,0.57l0,0q1.14,1.57 1.2,2.94999l0,0q0,0.82 0.06,1.42q0.06,0.6 0.13,1.04l0,0q0.06,0.32 0.15,0.57q0.1,0.25 0.16,0.44l0,0q0.38,1.57 0.32,3.02l0,0l0,0.44l0.06,1.7l-0.06,1.64q0,1.32 -0.07,2.01l0,0q0,0.63 -0.12,1.64l0,0l0.06,0.5q0.06,0.57 0.03,1.14q-0.03,0.56 0.03,1.13l0,0q0,0.51 -0.12,0.69q-0.13,0.19 -0.57,0.45l0,0q-0.19,0.06 -0.57,0.31l0,0l-0.06,0.19l0.25,0.12l2.14,-0.25l1.83,-0.19l2.08,-0.37l2.01,-0.13q0.76,-0.13 1.07,-0.13l0,0q1.89,-0.25 2.84,-0.31l0,0q0.12,-0.06 0.31,-0.03q0.19,0.03 0.32,0.03l0,0q0.31,0 0.85,-0.09q0.53,-0.1 0.91,-0.16l0,0q-0.13,-0.63 -0.25,-0.95l0,0q-0.13,-0.37 -0.13,-0.56l0,0q0,-0.32 0.13,-0.95l0,0q0.25,-1.76 0.25,-2.64l0,0l-0.57,-2.58l-0.25,-1.26q0.06,-0.07 0.06,-0.32l0,0l-0.37,-1.7q-0.07,-0.63 -0.13,-1.23q-0.06,-0.6 -0.12,-1.22l0,0q0,-0.32 -0.07,-0.51l0,0q-0.19,0 -0.47,0.03q-0.28,0.03 -0.66,0.16l0,0q-1.64,0.25 -2.33,0.5l0,0q-0.57,0.19 -1.2,0.22q-0.63,0.04 -0.94,0.04l0,0l-1.14,0.06l-0.25,0.06q-0.25,0.25 -0.25,0.25l0,0q-0.57,-0.19 -0.63,-0.31l0,0q-0.38,-0.38 -1.16,-0.82q-0.79,-0.44 -1.11,-0.69l0,0q-0.56,-0.44 -1.13,-1.07l0,0q-0.25,-0.25 0.19,-0.57l0,0q0.25,-0.19 0.5,-0.35q0.26,-0.15 0.51,-0.28l0,0l-0.32,-0.44l1.14,-0.13l1.7,-0.25l2.2,-0.31q0.63,-0.06999 2.01,-0.31999l0,0l1.96,-0.31q0.63,-0.07 1.45,-0.32l0,0q0.12,0 0.12,-0.19l0,0q-0.06,-0.81 -0.31,-2.45l0,0l0,-0.38q-0.07,-0.13 -0.32,-0.57l0,0q-0.31,-0.37 -0.82,-1.26l0,0q0,-0.25 0.13,-0.37l0,0q0.06,-0.07 0.19,-0.04q0.12,0.04 0.19,0.04l0,0l0.56,0.25q0.38,0.12 0.38,-0.32l0,0l0,-0.31q0.76,0 1.07,-0.06l0,0q0.13,0 0.25,-0.13l0,0q0.19,-0.38 0.7,-0.19l0,0l0.31,-0.06q0.57,-0.44 0.95,-0.13l0,0q0.31,0.19 0.78,0.28q0.47,0.1 0.66,0.16l0,0q2.02,0.25 2.77,0.44l0,0q0.19,0 0.32,0.25l0,0l0.31,1.33q0,0.12 0.07,0.28q0.06,0.16 0.06,0.35l0,0l0,1.26l0,0.12q0,0.19 0.13,0.38q0.12,0.19 0.25,0.19l0,0l1.51,0.13q0.63,0.06 1.83,0.06l0,0q1.51,0 2.26,-0.13l0,0q0.13,0 0.29,0.07q0.15,0.06 0.28,0.06l0,0q0.38,0.06 1.13,0.06l0,0q0.32,0.06 0.82,0.03q0.5,-0.03 0.76,-0.03l0,0q0.31,0.06 0.66,0.16q0.34,0.09 0.72,0.16l0,0l0.06,0.18q-0.06,0.13 -0.22,0.38q-0.15,0.25 -0.34,0.38l0,0q-0.32,0.32 -0.95,0.82l0,0q-0.94,0.63 -1.07,0.69l0,0q-0.12,0.06 -0.31,0.03q-0.19,-0.03 -0.32,0.03l0,0l-0.37,0l-0.82,0.51q-0.13,0.06 -0.19,0.19q-0.06,0.12 -0.13,0.19l0,0q-0.19,0.12 -0.44,0.47q-0.25,0.34 -0.63,0.34l0,0q-0.25,0 -0.56,0.13q-0.32,0.13 -0.51,0.19l0,0l-0.63,0.13q-0.12,0.06 -0.28,0.12q-0.16,0.06 -0.35,0.13l0,0l-1.57,0q-0.38,0 -0.38,0.31l0,0q0,0.19 -0.06,0.37999q-0.07,0.19 -0.07,0.38l0,0l0,0.25q0,0.57 0.38,0.82l0,0q0.38,0.25 0.06,0.63l0,0q-0.18,0.19 -0.18,0.63l0,0l0,2.01l0.06,1.7l-0.06,0.76l-0.13,1.38q-0.06,0.7 -0.38,1.39l0,0l-0.38,1.13q-0.18,0.38 -0.25,0.66q-0.06,0.29 -0.12,0.48l0,0l-0.32,0.94l0.88,0q2.52,-0.13 3.84,-0.25l0,0q1.33,-0.06 3.66,-0.32l0,0q0.25,-0.06 0.5,-0.03q0.25,0.03 0.5,-0.03l0,0q0.07,0 0.44,-0.19l0,0l0.57,-0.25q0.13,-0.13 0.13,-0.19l0,0q0.12,-0.38 0.63,-0.25l0,0q0.37,0.13 0.44,0.13l0,0q0.31,0 0.5,-0.32l0,0q0.76,0 1.2,-0.57l0,0l0.25,0.19q0.25,-0.25 0.25,-0.25l0,0z" fill="#2D7827" stroke="#2D7827" stroke-width="0.105" data-glyph-w="62.97" data-glyph-h="75.564" data-glyph-ascender="62.97" data-glyph-descender="-12.594" id="svg_94"/>
      <path d="m149.49,219.64001l0.13,-0.25q0.12,-0.13 0.25,-0.35q0.12,-0.22 0.31,-0.35l0,0q0.82,-0.44 1.45,-0.5l0,0q1.14,-0.25 3.53,-0.5l0,0q0.38,-0.07 0.56,0.12l0,0l1.45,1.2q1.77,1.56999 3.47,2.33l0,0l0.75,0.38q-0.44,0.44 -0.44,0.44l0,0q-0.25,0.12 -0.82,0.44q-0.56,0.31 -1.07,0.44l0,0q-0.75,0.25 -1.07,0.82l0,0q0,0.12 0.06,0.25q0.07,0.12999 0,0.18999l0,0l-0.31,0.25q0.19,0.25 0.31,0.25l0,0l0.76,0.07q0.06,0 0.16,0.03q0.09,0.03 0.22,-0.03l0,0l2.45,-1.25999l2.21,-1.14q0.19,-0.12 0.38,0l0,0l0.88,0.19q1.7,0.32 1.82,0.38l0,0q1.77,0.44 3.28,0.25l0,0q0.5,-0.06 1.7,-0.06l0,0q1.26,-0.13 1.76,-0.25l0,0q0.06,0 1.01,-0.19l0,0q0.38,-0.07 1.2,-0.07l0,0q0.25,-0.12 0.25,-0.25l0,0q0,-0.19 -0.13,-0.31l0,0q-0.12,-0.13 -0.82,-0.44l0,0q-0.38,-0.19 -0.88,-0.25q-0.5,-0.07 -0.75,-0.13l0,0q-0.57,-0.13 -2.21,-0.44l0,0l-3.52,-1.01l-0.63,-0.25l1.19,-1.07l0.95,-0.69q0.37,-0.26 1.13,-0.63l0,0q0.19,-0.19 0.19,-0.26l0,0q-0.13,-0.75 -0.25,-1l0,0q-0.07,-0.07 -0.16,-0.07q-0.1,0 -0.16,-0.06l0,0q-0.06,0 -0.19,-0.12l0,0q-0.06,0.06 -0.12,0.12q-0.07,0.06 -0.19,0.06l0,0l-0.19,-0.06q-0.13,0 -0.5,0.38l0,0l-0.19,0.19q-1.26,0.88 -2.84,2.33l0,0q-0.06,0.06 -0.15,0.09q-0.1,0.03 -0.16,-0.03l0,0q-0.88,-0.44 -2.52,-1.45l0,0l-0.82,-0.69q0.95,-0.32 2.71,-0.57l0,0q0.5,-0.06 1.26,-0.12q0.75,-0.07 1.26,-0.19l0,0q0.82,-0.13 2.45,-0.63l0,0q0.13,-0.06 0.38,-0.32l0,0q0.13,0 0.13,-0.12l0,0l1.19,-0.38q0.19,-0.06 0.41,-0.13q0.22,-0.06 0.47,-0.18l0,0q0.76,-0.38 1.08,-0.63l0,0q0.12,-0.07 0.25,-0.23q0.12,-0.15 0.06,-0.34l0,0q-0.13,-0.32 -0.31,-0.38l0,0q-0.82,-0.25 -1.08,-0.31l0,0q-0.62,0 -0.94,0.06l0,0q-0.25,0 -0.41,0.06q-0.16,0.06 -0.28,0.13l0,0q-0.76,0 -1.14,0.06l0,0q-1.19,0.06 -3.9,0.32l0,0q-0.25,0 -0.38,-0.07l0,0q0,-0.19 0.25,-0.41q0.26,-0.22 0.32,-0.34l0,0q0.06,-0.07 0.12,-0.16q0.07,-0.09 0.13,-0.28l0,0q0.06,-0.19 0.13,-0.51q0.06,-0.31 0.06,-0.5l0,0q0.13,-0.63 0.13,-0.88l0,0q0,-1.2 -0.82,-2.21l0,0q-0.25,-0.31 -0.48,-0.44q-0.22,-0.12 -0.59,-0.06l0,0l-0.07,0.57q-0.56,-0.32 -0.56,0.19l0,0q0,0.31 -0.07,0.5l0,0q-0.06,0.12 -0.12,0.25q-0.07,0.13 -0.07,0.25l0,0q0.07,0.13 0.07,0.38l0,0q0,0.13 -0.19,0.88l0,0q-0.13,0.38 -0.13,0.63l0,0l0.07,0.63q0,0.25 0.22,0.41q0.22,0.16 0.47,0.1l0,0q0.31,-0.13 0.44,0.25l0,0q0.13,0.19 0.13,0.69l0,0l-0.13,0.25l-1.83,0.13l-1.95,0.19l-2.08,0.37q-0.25,0 -0.5,-0.12l0,0l-0.57,-0.69q-1.26,-1.77 -1.95,-2.59l0,0q-1.2,-1.51 -2.14,-2.07l0,0q-0.76,-0.51 -1.51,-0.57l0,0l-0.13,0.63q-0.38,-0.19 -0.56,0.19l0,0l0.25,0.5l-0.13,0q-0.38,0 -0.5,0.32l0,0q0.12,0.25 0.25,0.53q0.13,0.28 0.25,0.6l0,0q0.19,0.44 0.32,0.88q0.12,0.44 0.31,0.88l0,0l1.13,2.14q0.13,0.32 -0.18,0.32l0,0l-0.82,0.12l-2.9,0.7l-0.69,-0.07q-0.06,0 -0.29,-0.03q-0.22,-0.03 -0.34,0.22l0,0q-0.06,0.19 -0.25,0.26l0,0q-0.26,0.06 -0.32,0.4q-0.06,0.35 0.06,0.54l0,0q0.07,0 0.07,0.13l0,0q0,0.12 -0.16,0.25q-0.16,0.12 -0.16,0.12l0,0q-0.19,0.19 -0.19,0.38l0,0q0,0.25 0.26,0.44l0,0q0.12,0.07 0.25,0.22q0.12,0.16 0.06,0.35l0,0l0.06,0.12q0.51,0.63 0.82,0.88999l0,0q0.32,-0.18999 0.44,-0.18999q0.13,0 0.38,0.25l0,0zm-9.51,-11.52001l-1.01,0.5q-0.75,0.25 -1.07,0.44l0,0q-0.18,0.06 -1.26,0.69l0,0l-1.38,0.95l-0.76,0.5q-0.06,0.06 -0.88,0.69l0,0l-0.38,0.32q-0.12,0.12 -0.34,0.38q-0.22,0.25 -0.41,0.31l0,0q-0.63,0.32 -1.13,0.91q-0.51,0.6 -0.7,0.79l0,0l-0.88,1.01q-0.82,0.82 -0.82,1.45l0,0q-0.06,0.31 -0.15,0.56q-0.1,0.26 -0.16,0.57l0,0q-0.13,0.38 0,0.63l0,0q0.25,0.38 0.38,0.88l0,0q0,0.13 0.06,0.19q0.06,0.06 0.06,0.19l0,0l0.13,0.32q-0.07,0.06 -0.07,0.25l0,0q0,0.19 0.13,0.47q0.13,0.28 0.19,0.47l0,0q0,0.25 0.5,0.38l0,0l0.44,0q0.89,0 1.39,-0.06l0,0q-0.06,-0.19 0,-0.29q0.06,-0.09 0.25,-0.09l0,0q0.13,-0.06 0.44,-0.06l0,0q0.38,0 1.39,-0.13l0,0q0.38,0 0.56,0.06l0,0q0.19,0.07 0.51,0.07l0,0q0.38,0 0.75,-0.19l0,0q0.51,-0.38 0.7,-0.63l0,0q0.25,-0.32 0.25,-0.7l0,0l0,-0.31q0,-0.44 0.19,-0.63l0,0q0.31,-0.32 0,-0.5l0,0q-0.07,0 -0.26,-0.16q-0.18,-0.16 -0.37,0.16l0,0q0,0.06 -0.13,0.12q-0.12,0.06 -0.19,0.06l0,0l-0.25,0.13q-0.06,0.25 -0.44,0.25l0,0q-1.39,0 -2.39,-0.63l0,0l-0.26,-0.12l1.08,-0.88l1.51,-1.39q2.07,-1.76 2.2,-1.83l0,0q1.13,-0.88 1.89,-1l0,0q0.69,-0.07 1.07,-1.01l0,0q0.31,-0.57 0.38,-1.13l0,0q0.19,-0.7 0.19,-1.33l0,0q0,-0.25 -0.13,-0.25l0,0q-0.06,-0.06 -0.38,-0.38q-0.31,-0.31 -0.37,-0.75l0,0l-0.07,-0.25zm-6.74,20.96q0.51,-0.62 0.57,-0.75l0,0q0.32,-0.31999 0.82,-0.94999l0,0q0.44,-0.5 1.45,-1.38l0,0q1.51,-1.32 1.51,-1.32l0,0q0.13,-0.13 0.28,-0.16q0.16,-0.03 0.29,-0.09l0,0l0.88,-0.82q1.38,-1.14 2.08,-1.77l0,0q0.81,-0.63 1.57,-1.38l0,0q0.5,-0.51 1.39,-1.64l0,0l1.7,-1.64q0.25,-0.19 0.28,-0.31q0.03,-0.13 -0.1,-0.44l0,0l-0.18,-0.63q0,-0.13 -0.07,-0.13l0,0q-0.19,-0.25 -0.69,-0.63l0,0q0,0 -0.31,-0.31l0,0q-0.13,-0.13 -0.23,-0.22q-0.09,-0.1 -0.22,-0.16l0,0q-0.12,-0.06 -0.53,-0.19q-0.41,-0.12 -0.79,0.06l0,0l-0.06,0q-0.76,-0.12 -1.07,-0.12l0,0l-1.51,-0.13q-0.25,0 -0.63,-0.03q-0.38,-0.03 -0.88,0.03l0,0q-0.51,0 -0.44,0.38l0,0l-0.19,0.13q-0.07,0.06 -0.29,0.15q-0.22,0.1 -0.15,0.29l0,0l1.25,1.13l0.95,1.01q0.19,0.19 0,0.44l0,0l-0.76,0.82q-0.56,0.44 -1,1l0,0l-1.33,1.26l-0.56,0.57l-1.45,1.32l-0.19,0.25l-1.13,0.95q-0.19,0.12999 -0.41,0.34999q-0.22,0.22 -0.41,0.34001l0,0q-0.19,0.06999 -0.82,0.68999l0,0q-0.25,0.26 -0.25,0.26l0,0l-1.51,1.89l-0.26,0.18l-0.56,0.38q-0.07,0 -0.1,0.03q-0.03,0.04 -0.09,0.1l0,0q-0.32,0.19 -0.41,0.38q-0.1,0.19 -0.03,0.63l0,0q0,0.12 -0.07,0.18l0,0q-0.31,0.32 0.07,0.76l0,0q0.25,0.32 0.12,0.82l0,0q0,0.63 -0.12,2.01l0,0l-0.07,0.26q-0.25,0.31 0,0.69l0,0q0.26,0.38 0.63,0.38l0,0q0.19,-0.07 0.57,-0.19q0.38,-0.13 0.69,0.12l0,0l1.2,-0.31l0.57,-0.25q1,-0.13 1.63,-0.26l0,0l3.15,-0.56q1.77,-0.38 2.58,-0.76l0,0q0.76,-0.25 1.39,-0.53q0.63,-0.29 1.13,-0.47l0,0l1.2,-0.7q0,0 0.19,-0.09q0.19,-0.1 0.06,-0.35l0,0l0.13,-0.25l0.63,-0.57q0,0 0.63,-0.63l0,0q0.06,-0.06 0.06,-0.25l0,0q-0.06,-0.12 0.03,-0.28q0.1,-0.16 0.1,-0.22l0,0q0.12,-0.38 -0.07,-0.7l0,0q-0.19,-0.37 -0.69,-0.25l0,0q-0.25,0.07 -0.66,0.07q-0.41,0 -0.66,0.06l0,0q-0.44,0.12 -0.57,-0.13l0,0q-0.12,0 -0.35,0.22q-0.22,0.22 -0.47,0.1l0,0q-0.94,0.94 -0.94,0.94l0,0q-0.51,0.51 -1.58,0.76l0,0q-1,0.25 -1.44,0.31l0,0l-1.2,0.25q-1.51,0.13 -2.27,0.13l0,0q-0.25,0 -1.01,-0.13l0,0zm19.02,1.52001l-0.94,0q-0.25,0 -0.88,0.12l0,0l-0.57,0q-0.32,0 -0.25,-0.25l0,0q0,-0.25 -0.13,-0.63l0,0q0,-0.06 -0.06,-0.13q-0.07,-0.06 -0.13,-0.06l0,0q-0.88,0.13 -1.32,0.13l0,0q-0.13,0 -0.13,0.19l0,0l-0.5,1.07q0,0.06 -0.03,0.15q-0.03,0.1 0.03,0.16l0,0q0.19,0.19 -0.13,0.51l0,0q-0.25,0.18 -0.56,0.75l0,0q-0.25,0.56999 -0.32,0.68999l0,0q-0.12,0.38 -0.12,0.63l0,0q0,0.63 0.69,0.89l0,0q0.25,0.12 0.75,0.12l0,0q0.76,0 1.2,-0.31l0,0q0.5,-0.32 0.63,-0.32l0,0q1.13,-0.25 1.76,-0.31l0,0l2.46,-0.13l0.13,0q0.25,0 0.5,0.25l0,0l0.94,1.39l0.95,1.32q1.13,1.89 1.76,2.71l0,0q0.32,0.38 2.08,2.52l0,0q0.25,0.25 0.06,0.44l0,0l-0.5,0.44q-0.95,0.82 -2.14,1.57l0,0q-0.25,0.19 -0.47,0.32q-0.22,0.12 -0.48,0.31l0,0q-0.12,0.07 -1.26,0.88l0,0q-0.18,0.13 -0.41,0.22q-0.22,0.1 -0.47,0.29l0,0q-1.32,1.01 -1.45,1.07l0,0q-0.37,0.31 -1.26,0.82l0,0l-1.25,0.88q-0.38,0.31 -0.7,0.5q-0.31,0.19 -0.56,0.38l0,0l-0.19,0.25l-1.45,0.69q-0.06,0 -0.19,0.07q-0.13,0.06 -0.19,0.12l0,0q-0.19,0.32 -0.6,0.51q-0.41,0.19 -0.66,0.37l0,0q-0.12,0.07 -0.53,0.38q-0.41,0.32 -0.85,0.44l0,0q-0.07,0 -0.19,0.13l0,0q-0.13,0.25 -0.19,0.25l0,0q-0.19,0.06 -0.41,0.25q-0.22,0.19 -0.41,0.26l0,0q-0.13,0.06 -0.41,0.34q-0.28,0.28 -0.66,0.16l0,0l-0.13,0.06q-0.19,0.19 -0.37,0.29q-0.19,0.09 -0.32,0.22l0,0l-0.57,0.37q-0.37,0.26 -0.63,0.35q-0.25,0.09 -0.56,-0.09l0,0l-0.07,0l-0.12,0.31q-0.38,0.5 -0.38,0.88l0,0q0,0.25 -0.25,0.63l0,0q-0.19,0.13 -0.19,0.44l0,0q0.19,0.38 -0.25,0.51l0,0q-0.06,0 -0.16,-0.04q-0.09,-0.03 -0.16,0.04l0,0q-0.06,0.12 -0.15,0.34q-0.1,0.22 -0.04,0.41l0,0q0.07,0.19 0.04,0.32q-0.04,0.12 -0.04,0.25l0,0q0.26,0.31 0.63,0.19l0,0q0.19,-0.07 0.6,-0.16q0.41,-0.09 0.66,-0.22l0,0q2.59,-1.26 3.09,-1.57l0,0q0.75,-0.38 2.14,-1.26l0,0l1.76,-1.01q0.44,-0.32 0.88,-0.63q0.45,-0.32 0.89,-0.63l0,0q0.5,-0.25 2.14,-1.45l0,0l2.26,-1.57q0,0 2.27,-1.52l0,0l1.89,-1.32l2.64,-1.95l2.59,-1.95q0.19,-0.19 0.25,-0.06l0,0q1.07,0.75 1.26,0.94l0,0q0.31,0.19 1.76,1.51l0,0l2.52,1.83q1.57,0.94 1.83,1.07l0,0q0.81,0.44 1.44,0.69q0.63,0.25 1.01,0.44l0,0q0.32,0.13 1.58,0.63l0,0q1.76,0.63 2.96,0.88l0,0q1.51,0.25 2.2,0.25l0,0q0.38,0 0.94,-0.03q0.57,-0.03 1.33,0.03l0,0l0.12,0q0.38,0 0.79,-0.15q0.41,-0.16 0.53,-0.22l0,0q-0.5,-0.51 -0.5,-0.51l0,0q-0.06,-0.06 0,-0.25l0,0q0.38,-0.19 0.44,-0.19l0,0l0.76,0q0.44,-0.12 0.44,-0.25l0,0q0,-0.38 0.31,-0.57l0,0q0.13,-0.12 0.26,-0.37l0,0q0.18,0 0.25,-0.07l0,0l1,-0.25q0.32,0 0.32,-0.25l0,0q-0.13,-0.38 0.13,-0.44l0,0q0.12,-0.13 0,-0.38l0,0q0,-0.06 -0.13,-0.19l0,0q0.25,-0.19 0.25,-0.5l0,0q0,-0.19 -0.19,-0.44l0,0q0.13,-0.13 0.19,-0.13l0,0q0.44,0.06 0.38,-0.38l0,0l0.06,-0.19q0.38,-0.37 0.38,-0.37l0,0q0.31,-0.32 -0.06,-0.38l0,0q-0.13,0 -0.13,-0.13l0,0q0,-0.12 -0.03,-0.28q-0.03,-0.16 0.03,-0.35l0,0q0.06,-0.12 0.06,-0.44l0,0q0,-0.38 -0.06,-0.63q-0.06,-0.25 -0.13,-0.44l0,0q0,-0.19 -0.12,-0.19l0,0q-0.19,-0.12 -0.44,-0.5l0,0q-0.06,-0.13 -0.22,-0.19q-0.16,-0.06 -0.22,0.06l0,0q-0.19,0.57 -0.76,0.13l0,0q0.06,0.19 0.06,0.44l0,0q0,0.57 -0.56,0.69l0,0l-0.06,1.14q0,0.31 -0.32,0.25l0,0q-1.01,-0.32 -1.83,-0.51l0,0q-2.26,-0.63 -3.4,-1l0,0q-1.51,-0.44 -2.7,-0.95l0,0q-0.63,-0.25 -1.89,-0.88l0,0q-2.14,-1.01 -2.71,-1.32l0,0q-0.44,-0.25 -2.08,-1.26l0,0q-0.31,-0.19 -0.94,-0.69l0,0q0.5,-0.51 1.95,-1.52l0,0q0.19,-0.12 0.35,-0.12q0.15,0 0.22,-0.06l0,0q1,-0.44 1.25,-0.7l0,0q0.63,-0.69 1.01,-2.39l0,0q0.07,-0.13 0.03,-0.28q-0.03,-0.16 -0.15,-0.22l0,0q-0.19,-0.19 -0.32,-0.57l0,0q-0.12,-0.5 -0.5,-0.19l0,0l-1.39,1.07l-0.5,0.38l-1.76,1.2l-1.14,0.94q-0.12,0.06 -0.41,0.25q-0.28,0.19 -0.34,0.38l0,0q-0.26,0.25 -0.57,0.06l0,0q-1.13,-0.63 -1.89,-1.38l0,0l-1.7,-1.58l-1.07,-0.94q-0.13,-0.13 -0.5,-0.57l0,0q0.44,-0.06 1.07,-0.06l0,0q0.37,-0.06 1.1,-0.13q0.72,-0.06 1.23,-0.25l0,0l0.69,-0.19q0.25,0 0.75,-0.06q0.51,-0.06 0.82,-0.13l0,0q0.07,-0.06 0.41,-0.15q0.35,-0.1 0.48,-0.41l0,0q0.06,-0.07 0.22,-0.16q0.15,-0.1 0.22,-0.1l0,0q0.06,-0.06 0.22,-0.09q0.15,-0.03 0.22,-0.09l0,0q0.19,-0.26 0.66,-0.54q0.47,-0.28 0.66,-0.47l0,0q0,0 0.12,-0.13l0,0l-0.18,-0.19l-0.44,-0.31q-0.32,-0.51 -0.76,-0.51l0,0l-0.5,-0.12q-0.19,-0.06 -0.41,-0.13q-0.22,-0.06 -0.54,-0.06l0,0q-0.44,0 -1.32,0.13l0,0q-1.01,0.12 -1.45,0.12l0,0q-0.38,0.06 -1.13,0.06l0,0q-0.07,0 -0.19,-0.12l0,0q0,-0.19 0.12,-0.19l0,0l0.57,-0.25l0.19,-0.06q0.06,-0.07 0.16,-0.13q0.09,-0.06 0.22,-0.06l0,0l1.57,-0.38q0.19,0 0.32,-0.13l0,0l0.56,-0.63l0.51,-0.56q0.19,-0.26 -0.19,-0.38l0,0l-0.57,0q-0.31,0 -0.5,-0.06l0,0q-0.51,-0.19 -1.54,-0.51q-1.04,-0.31 -1.61,-0.82l0,0l-0.57,0.63q-0.31,0.32 -0.31,0.38l0,0q0,0.5 -0.57,1.2l0,0q-0.12,0.19 -0.12,0.44l0,0q0,0.31 0.25,0.5l0,0q0,0 0.25,0.25l0,0l0.25,1.01l-1.64,0.13q-1.51,0.12 -2.2,0.25l0,0q-0.25,0 -0.44,-0.25l0,0l-1.83,-2.65l-0.75,-1.01l-0.95,-1.19q-0.5,-0.63 -0.88,-0.69l0,0q-0.06,0 -0.44,-0.13l0,0l-0.25,0.31q-0.13,0.26 -0.25,0.26l0,0q-0.19,0 -0.26,0.15q-0.06,0.16 -0.06,0.22l0,0q-0.06,0.19 -0.16,0.32q-0.09,0.12 -0.34,0.06l0,0l-0.19,0.82l-0.06,1.01q0,0.31 0.12,0.94l0,0q0.13,0.38 0.13,0.63l0,0l0,0.25q0,0.32 0.25,1.07l0,0q0.13,0.26 0.25,0.89l0,0l0,0.00001zm-18.64,3.84l-0.63,0.31q-1.38,0.44 -1.76,0.63l0,0q-0.13,0 -0.32,0.19l0,0q-0.18,0.63 -0.81,1.19999l0,0q-0.32,0.31 -0.32,0.31l0,0q-0.25,0.25 -0.31,0.38l0,0l-0.13,1.07l-0.19,0.5q-0.12,0.32 -0.06,0.38l0,0q0.12,0.19 0.09,0.47q-0.03,0.29 -0.03,0.41l0,0l0,1.2l0.06,0.57q0.07,0.06 0.16,0.15q0.1,0.1 0.1,0.16l0,0q0,0.51 0.44,0.38l0,0l1.26,-0.32q0.25,-0.06 0.41,-0.15q0.15,-0.1 0.41,-0.16l0,0l2.64,-0.88l1.26,-0.38q0.5,-0.19 1.51,-0.44l0,0l1.7,-0.69l1.32,-0.76q0.13,-0.06 0.19,-0.25q0.06,-0.19 0.19,-0.32l0,0l1.01,-1.07q0.82,-0.81 0.82,-0.81l0,0q0.37,-0.37999 0.56,-0.81999l0,0l0,-0.07q0,-0.19 -0.06,-0.31q-0.06,-0.13 -0.13,-0.25l0,0q-0.25,0.06 -0.47,0.19q-0.22,0.12 -0.47,0.18l0,0l-3.9,0.76q-1.33,0.25 -3.97,0.62999l0,0q-0.25,0.06001 -0.76,0.06001l0,0q-0.25,0 -0.19,-0.25l0,0l0.13,-0.5q0,-0.13 0.06,-0.38q0.07,-0.25 0.19,-0.32l0,0q0.25,-0.31 0.25,-0.5l0,0q0,-0.25 -0.25,-0.5l0,0z" fill="#2D7827" stroke="#2D7827" stroke-width="0.105" data-glyph-w="62.97" data-glyph-h="75.564" data-glyph-ascender="62.97" data-glyph-descender="-12.594" id="svg_93"/>
      <path d="m246.78,211.20001l0.25,-0.06q0.19,0 0.32,-0.13l0,0q0.44,-0.56 0.44,-1.19l0,0q0,-0.51 -0.32,-1.01l0,0q-0.06,-0.06 -0.16,-0.16q-0.09,-0.09 -0.15,-0.16l0,0q-0.32,-0.63 -1.39,-0.88l0,0q-0.44,-0.06 -1.04,-0.12q-0.6,-0.07 -0.91,-0.07l0,0q-0.44,-0.06 -1.26,-0.06l0,0l-0.76,0q-0.56,-0.06 -1.38,-0.13q-0.82,-0.06 -1.95,-0.06l0,0q-1.58,0 -4.98,0.13l0,0l-3.21,0.06q-1.01,0.06 -2.96,0.06l0,0l-1.82,0.07l-2.65,0.12l-2.9,0.25q-1,0 -3.14,0.26l0,0q-1.96,0.25 -4.16,0.37l0,0l-2.27,0.19q-0.69,0.13 -2.08,0.25l0,0q-0.56,0.07 -1.57,0.26q-1.01,0.19 -1.7,0.19l0,0q-0.19,0 -0.25,-0.07l0,0l-0.63,-0.69q-0.32,-0.38 -0.82,-0.19l0,0l-0.31,0.06l-0.45,-0.06q-0.37,0.13 -0.81,0.13q-0.44,0 -0.57,0l0,0q-0.13,0 -0.32,-0.03q-0.18,-0.04 -0.31,0.03l0,0q-0.19,0 -0.35,0.22q-0.15,0.22 -0.09,0.41l0,0q0.06,0.06 0.06,0.25l0,0q0,0.19 -0.06,0.31q-0.06,0.13 -0.13,0.25l0,0q-0.19,0.38 -0.56,0.89q-0.38,0.5 -0.51,0.87999l0,0q-0.06,0.19 -0.22,0.44q-0.16,0.25 -0.22,0.38l0,0q-0.5,0.63 -0.38,1.89l0,0q0,0.18 0.07,0.28q0.06,0.09 0.12,0.22l0,0l0.25,0.31q0,0.32 0.38,0.95l0,0l0.88,1.01q0.51,0.5 0.89,0.56l0,0q1.63,0.13 2.33,0.26l0,0l0.37,-0.07l0.25,0q0.7,0 1.52,-0.31l0,0q0.44,-0.13 2.52,-0.82l0,0l0.06,0.06q0,0 -0.03,0.03q-0.03,0.03 -0.03,0.03l0,0q0.12,0.07 0.44,0.04q0.31,-0.04 0.25,-0.16l0,0l0.88,-0.06l1.51,0.06q0.88,0 1.76,-0.19l0,0l0.26,0l2.96,-0.06q0.06,0 0.28,-0.03q0.22,-0.04 0.34,0.09l0,0q0.26,0.19 0.76,0l0,0l0.32,0q0.5,0 0.75,0.06l0,0q0.38,0.13 0.63,0.13l0,0l1.95,-0.06q1.07,0.06 3.34,0.31l0,0q0.88,0 1.39,0.06l0,0q0.63,0 0.88,0.07l0,0l1.95,0.19l1.45,0.18q0.82,0.13 2.2,0.26l0,0q0.69,0.06 1.95,0.06l0,0l3.47,-0.06l1.07,-0.13q0.25,-0.06 0.53,-0.16q0.29,-0.09 0.47,-0.09l0,0q0.89,0 1.83,-0.32l0,0q0.38,-0.12 0.57,-0.28q0.19,-0.16 0.25,-0.47l0,0q0,-0.13 0.13,-0.13l0,0q0.31,-0.12 0.47,-0.44q0.16,-0.31 0.22,-0.44l0,0q0.06,-0.06 0.22,-0.41q0.16,-0.35 0.53,-0.53l0,0q0,0 0.44,-0.44l0,0l-0.06,-0.13l1.32,-0.44q0.63,-0.32 0.76,-0.51l0,0q0.13,-0.12 0.35,-0.28q0.22,-0.16 0.41,-0.35l0,0q0.06,0 0.12,-0.06q0.06,-0.06 0,-0.12l0,0l-0.25,-0.94999zm-25.94,40.49q0.12,-0.88 0.18,-0.94l0,0l0.38,-1.58q0.13,-0.38 0.44,-0.31l0,0q0.82,0.12 1.8,-0.03001q0.97,-0.15999 1.29,-0.21999l0,0l2.96,-0.38q1.01,-0.13 1.45,-0.32l0,0q1,-0.37 1.51,-0.69l0,0l1.19,-0.69q0.76,-0.38 0.95,-0.63l0,0l0.69,-0.63q0.19,-0.13 0.35,-0.32q0.16,-0.19 0.09,-0.5l0,0q0,-0.19 0.07,-0.25l0,0q0.18,-0.25 -0.07,-0.51l0,0q-0.31,-0.12 -0.12,-0.5l0,0q0.06,-0.57 0.31,-1.39l0,0q0.06,-0.12 0.13,-0.4q0.06,-0.29 0.31,-0.35l0,0l0.82,-0.19q0.38,0 0.57,-0.06l0,0q0.12,-0.07 0.31,-0.13q0.19,-0.06 0.38,-0.19l0,0q0.19,-0.06 0.38,-0.12q0.19,-0.07 0.38,-0.19l0,0l1.32,-0.76l0.5,-0.12l0.88,-0.44q0.26,-0.26 0.51,-0.32l0,0q0.19,-0.13 0.82,-0.25l0,0q0.12,-0.06 0.25,-0.32l0,0q0.06,-0.12 -0.1,-0.19q-0.15,-0.06 -0.22,-0.12l0,0q-0.12,-0.32 -0.63,-0.5q-0.5,-0.19 -0.69,-0.32l0,0q-0.13,-0.13 -0.44,-0.19q-0.32,-0.06 -0.44,-0.06l0,0q-0.13,-0.06 -0.38,-0.06l0,0q-0.12,0 -0.19,-0.07l0,0q-0.19,-0.06 -0.44,-0.16q-0.25,-0.09 -0.44,-0.03l0,0q-0.06,0 -0.19,0.03q-0.12,0.04 -0.19,0.23l0,0l-0.12,0.06l-1.2,-0.06q-0.38,0 -0.19,-0.32l0,0l0.25,-1.13q0.07,-0.19 0.03,-0.32q-0.03,-0.12 -0.03,-0.19l0,0q0.19,-0.75 0.19,-0.88l0,0q0.13,-1.89 -0.38,-2.96l0,0l0,-0.12l0,-0.13q0,-0.19 -0.12,-0.35q-0.13,-0.15 -0.19,-0.22l0,0q-0.19,-0.37 -0.19,-0.5l0,0q0,-0.13 0.03,-0.32q0.03,-0.18 -0.03,-0.37l0,0q-0.38,-0.7 -1.13,-0.95l0,0q-0.38,-0.19 -0.44,-0.25l0,0q-0.32,-0.38 -0.79,-0.53q-0.47,-0.16 -0.6,-0.23l0,0q-0.31,-0.12 -0.85,-0.22q-0.53,-0.09 -0.85,-0.15l0,0q-1.76,-0.38 -2.58,-0.51l0,0q-2.46,-0.25 -3.53,-0.31l0,0q-0.75,-0.06 -1.35,-0.03q-0.6,0.03 -1.04,0.03l0,0q-0.13,0 -0.22,-0.06q-0.09,-0.07 -0.09,-0.13l0,0q-0.07,-0.19 -0.07,-0.5l0,0q-0.06,-0.44 -0.12,-0.95q-0.07,-0.5 -0.13,-0.94l0,0q-0.06,-0.7 -0.38,-1.33l0,0q-0.38,-0.75 -0.88,-1l0,0q-0.63,-0.44 -2.39,-0.82l0,0l-0.06,0q-0.19,0 -0.38,0.12q-0.19,0.13 -0.19,0.32l0,0l-0.25,0.06q-0.38,0.19 -0.44,0.25l0,0l-0.38,0.19l-0.25,0.13q-0.32,-0.06 -0.26,0.31l0,0q0,0.76 0.07,1.36q0.06,0.6 0.12,1.04l0,0q0.07,0.5 0.03,1.07q-0.03,0.56 0.04,1.13l0,0q0,0.13 -0.26,0.13l0,0q-0.75,0.19 -2.83,0.44l0,0q-1.51,0.19 -2.52,0.5l0,0l-3.08,0.82q-0.19,0.06 -0.57,0.13q-0.38,0.06 -0.57,0.06l0,0q-0.06,0 -0.15,-0.03q-0.1,-0.03 -0.1,-0.1l0,0q-0.19,-0.25 -0.5,-0.31q-0.32,-0.07 -0.38,-0.07l0,0q-0.13,0 -0.35,0.04q-0.22,0.03 -0.34,-0.16l0,0q0,-0.06 -0.03,-0.06q-0.04,0 -0.1,0l0,0q-0.06,0.06 -0.06,0.18l0,0l0.06,0.19l-0.82,0.13q0.13,0.25 0.13,0.31l0,0q0,0.26 -0.07,0.45q-0.06,0.18 -0.12,0.31l0,0l-0.76,-0.13q-0.12,0.19 -0.12,0.51l0,0q0,0.31 0.19,0.69l0,0q0.06,0.13 0.19,0.41q0.12,0.28 0.12,0.54l0,0q0,0.5 0.06,1.07q0.07,0.56 0.07,1.07l0,0l-0.07,3.46q0,0.13 0,0.25q0,0.13 -0.09,0.16q-0.09,0.03 -0.28,0.03l0,0q-0.38,0 -1.11,-0.09q-0.72,-0.1 -1.29,-0.1l0,0q-0.82,-0.06 -2.45,-0.06l0,0l-1.07,0l0.06,0.57l-0.88,0.06l0.38,0.44l-0.19,0q-0.38,0 -0.57,0.31l0,0q-0.31,0 -0.57,-0.12l0,0l0,-1.77q0,-0.56 -0.03,-1.76q-0.03,-1.2 -0.22,-2.14l0,0l0,-0.13l-0.12,-1.88q-0.07,-0.26 -0.19,-0.48q-0.13,-0.22 -0.19,-0.41l0,0q-0.06,-0.19 -0.25,-0.81l0,0l-0.07,0q-0.19,0 -0.34,-0.16q-0.16,-0.16 -0.22,-0.41l0,0l-0.82,0.38q-0.13,0.12 -0.25,0.5l0,0l-0.26,1.76q-0.12,1.26 -0.12,1.96l0,0l0.06,1.82l0,1.7q0,0.13 0.06,0.25q0.07,0.13 0,0.19l0,0q0,0.38 -0.03,0.85q-0.03,0.47 0.03,1.1l0,0q0,0.7 0.13,2.08l0,0l-0.06,0.95l0.06,0.5l0,0.44q0.06,0.06 0,0.16q-0.06,0.09 0,0.16l0,0q0.06,0.06 0.06,0.19l0,0q0,0.12 -0.06,0.34q-0.06,0.22 -0.06,0.47l0,0q0,0.26 0.19,0.57l0,0q0.06,0.13 0.06,0.38l0,0q-0.06,0.12 -0.06,0.31l0,0l0.06,0.51q0,0.06 0.09,0.25q0.1,0.19 -0.09,0.31l0,0l0.19,0.95q-0.06,0.12 -0.06,0.31l0,0q0,0.32 0.18,0.51l0,0q-0.12,0.5 -0.12,0.69l0,0q0.12,0.5 0.12,0.69l0,0q0,0.25 0.07,0.98q0.06,0.72 0.19,1.29l0,0l0.12,0.5q0,0.19 0.13,0.44l0,0l0.06,-0.06q0,-0.57 0.06,-0.88l0,0q0,-0.13 -0.03,-0.41q-0.03,-0.28 0.03,-0.35l0,0q0.07,-0.12 0.07,-0.37q0,-0.26 0.06,-0.38l0,0l0,-0.51q0,-0.5 0.13,-0.75l0,0q0.12,-0.38 0.12,-0.63l0,0l0.13,0l0.25,1.64l0,-1.33q0,-0.06 -0.03,-0.12q-0.03,-0.07 0.03,-0.13l0,0q0,-0.82 0.13,-2.71l0,0l0.12,-2.58001q0,-0.31 0.13,-0.82l0,0q0.06,-0.19 0.12,-0.44q0.07,-0.25 0.07,-0.56l0,0l0.12,-1.44999l0.19,-1.39q0.5,0.63 0.57,0.82l0,0q0.12,0.32 0.56,0.44l0,0l0.76,0.32q0.13,0.06 0.38,0.31q0.25,0.25 0.63,0.13l0,0l0.06,0q0.5,0.06 1.64,0.31l0,0q1.64,0.13 2.52,0.25l0,0l0.88,0.06999l0,1.63l0,0.13q0,0.76 -0.19,1.07l0,0q-0.06,0.06 -0.03,0.19q0.03,0.13 0.03,0.19l0,0q0.06,0.19 0.19,0.38q0.12,0.19 0.19,0.5l0,0q0.06,0.38 0.06,1.13l0,0l-0.57,0.13q0,0.25 -0.06,0.38l0,0l-0.31,0.19q-0.07,0 -0.16,-0.04q-0.1,-0.03 -0.22,0.04l0,0q-0.19,0 -0.32,0.19l0,0l-0.06,0.12q0,0.19 0.09,0.35q0.1,0.16 0.22,0.22l0,0l1.26,0.75l0.13,0l2.71,-0.25l2.33,0l1.76,0.06l1.51,0q1.26,0.13 1.83,0.13l0,0l2.77,0q0.31,0 0.5,0.38l0,0q0.38,1.51 0.7,2.2l0,0q0.06,0.13 0.56,1.01l0,0q0.32,-0.13 0.38,-0.25l0,0q0,0 0.31,-0.32l0,0q0.19,-0.19 0.32,0.07l0,0q0.25,0.63 1.07,0.37l0,0q0.06,0 0.28,-0.12q0.22,-0.13 0.48,0.06l0,0l0,0.00001zm24.62,-20.59l-0.07,0.25q-0.12,1.01 -0.12,1.51l0,0q0,0.37999 -0.03,0.94999q-0.03,0.56 0.03,1.01l0,0q0.06,0.25 0,0.5q-0.06,0.25 0,0.5l0,0q0.06,0.32 0.03,0.6q-0.03,0.28 -0.03,0.47l0,0l0.12,1.96q0.26,1.95 0.44,3.14l0,0l0.45,2.84q0.12,1.13 0.25,1.63l0,0q0,0.13 0.12,0.38l0,0q0.07,0 0.19,-0.06q0.13,-0.06 0.19,-0.13l0,0q0.25,-0.37 0.82,-0.25l0,0q0.44,0 0.5,-0.25l0,0q0.26,-0.82 0.32,-1.45l0,0l0,-0.38q0,-0.75 0.12,-1.13l0,0q0.07,-0.19 0.13,-0.54q0.06,-0.34 0.06,-0.53l0,0l0.19,-2.77l0.07,-1.7l-0.07,-1.69999q0,-0.44 0.13,-1.32l0,0q0.06,-0.07 0.03,-0.1q-0.03,-0.03 -0.03,-0.09l0,0l0,-0.57q0,-1.13 -0.13,-1.7l0,0q0,-0.06 -0.06,-0.22q-0.06,-0.16 -0.13,-0.22l0,0l-1,-0.94l-0.07,0.25l-0.94,-0.57l-0.25,0.32l-0.26,0.06q-0.31,-0.13 -0.37,0.25l0,0l-0.63,0zm-30.23,4.91l-2.39,0q-1.32,0.06 -4.54,0.31999l0,0l-0.56,0q-0.44,0 -0.38,-0.37999l0,0l0.06,-1.26l0,-1.58q0,-0.44 0.63,-0.62001l0,0q0.25,-0.06999 0.44,-0.12999q0.19,-0.06001 0.38,-0.13l0,0l0.82,-0.19q0.76,-0.12 1.07,-0.31l0,0q0.32,-0.19 0.66,-0.25q0.35,-0.07 0.47,-0.07l0,0q0.44,-0.06 0.92,-0.03q0.47,0.03 0.91,-0.03l0,0l0.19,-0.06l0.31,0l0.32,0.06l1.13,-0.19q0.19,-0.06 0.25,0.03q0.07,0.1 0.07,0.29l0,0l0,4.03q0,0.31 -0.03,0.38q-0.04,0.06 -0.35,0.12l0,0l-0.38,0l0,0zm15.24,-1.64l0,1.83q0,0.32 -0.25,0.32l0,0l-1.26,0q-1.7,-0.19 -1.83,-0.19l0,0q-1.89,-0.13 -2.77,-0.13l0,0q-0.12,0 -0.31,0.03q-0.19,0.03 -0.44,-0.03l0,0q-0.38,0 -1.26,-0.13l0,0l-0.25,-0.06q-0.32,0 -0.32,-0.12l0,0q0,-0.82 0.06,-1.33l0,0q0.13,-0.88 0.26,-1.32l0,0q0.25,-0.88 0.44,-1.32l0,0q0.06,-0.13 0.18,-0.32q0.13,-0.19 0.13,-0.37l0,0q0.32,-0.13 0.44,-0.07l0,0q0.19,0.13 0.47,0.13q0.29,0 0.35,0l0,0l1.64,0.19q0.38,0.06 1.13,0.06l0,0l2.08,-0.06q0.5,0 0.79,0.22q0.28,0.22 0.34,0.79l0,0q0.19,0.56 0.25,1.07q0.07,0.5 0.13,0.81l0,0zm-23.24,6.81q0.32,-0.07 0.76,-0.13q0.44,-0.06 1.07,-0.06l0,0q0.32,-0.07 0.82,-0.04q0.5,0.04 0.75,0.04l0,0l2.15,0.06q0.88,0.13 1.26,0.13l0,0q0.31,0.06 0.53,0.03q0.22,-0.03 0.41,-0.03l0,0q0.5,0 0.76,0.06l0,0q0.18,0 0.18,0.12l0,0q0,0.7 0.13,1.83l0,0q0.06,0.31 0.06,0.94l0,0q0.07,0.45 -0.31,0.45l0,0l-2.21,0.12l-1.57,0l-3.09,0.13l-1.7,0q-0.06,0 -0.09,-0.03q-0.03,-0.04 -0.03,-0.1l0,0l0,-1.07q0,-0.63 0.06,-1.26q0.06,-0.63 0.06,-1.19l0,0zm14.36,3.27l0.25,-1.2l0.13,-1.19q0.06,-0.07 0.06,-0.16q0,-0.1 0.07,-0.16l0,0q0.06,-0.12 0.12,-0.25q0.06,-0.13 0.19,-0.25l0,0q0.13,-0.13 0.31,-0.13l0,0q0.45,0 0.82,0.07q0.38,0.06 0.82,0.06l0,0l0.32,0q0.63,0 0.88,-0.06l0,0l0.31,0.06q0.19,-0.06 0.57,-0.06l0,0q0.44,0 0.85,0.06q0.41,0.06 0.85,0.06l0,0l1.51,0l0.76,-0.06q0.31,0 0.31,0.31l0,0q0.25,1.01 0.32,1.58l0,0q0.12,0.06 -0.07,0.25l0,0q-0.31,0.44 -0.69,0.63l0,0q-0.06,0.06 -0.31,0.06l0,0q-0.63,0 -2.02,0.13l0,0q-1.01,0.12 -1.57,0.12l0,0l-2.46,0.19l-2.2,0l-0.13,-0.06zm8.94,10.96q-0.25,-0.19 -0.5,-0.13q-0.25,0.06 -0.32,0.06l0,0q-0.75,0.26 -1.13,0.26l0,0q-0.25,0 -0.75,-0.13l0,0l-1.01,-0.25q-2.39,-0.38 -4.41,-0.32l0,0q-1.39,0.13 -2.02,0.13l0,0q-0.44,0.06 -0.75,0.03q-0.32,-0.03 -0.57,-0.03l0,0l-1.95,0l-1.32,-0.06l-2.71,0l-0.38,-0.07l-2.01,0.19l-1.83,0.06q-0.75,0.07 -2.2,0.07l0,0l-1.07,-0.07q0.06,0.19 0.06,0.57l0,0q-0.5,-0.25 -0.76,-0.25l0,0q-0.31,0 -0.56,0.25l0,0q0.31,0.32 0.31,0.44l0,0q0,0.25 0.22,0.57q0.22,0.31 0.29,0.44l0,0q0.12,0 0.12,0.13l0,0q0.19,0.44 0.95,0.56l0,0q0.44,0.07 0.75,0.03q0.32,-0.03 0.57,-0.03l0,0l1.64,0l1.7,0.07l2.77,0.18l2.77,0.26q1.26,0 1.89,-0.07l0,0q1.51,-0.12 2.33,-0.25l0,0q0.25,-0.06 0.56,-0.12q0.32,-0.07 0.76,-0.07l0,0l2.96,-0.12q0.5,0 0.69,-0.07l0,0q1.32,-0.56 1.64,-0.69l0,0l0.12,-0.13l1.01,-0.5q0.51,-0.13 1.39,-0.5l0,0l0.75,-0.44z" fill="#2D7827" stroke="#2D7827" stroke-width="0.105" data-glyph-w="62.97" data-glyph-h="75.564" data-glyph-ascender="62.97" data-glyph-descender="-12.594" id="svg_92"/>
      <path d="m300.68,207.42001q-0.12,-0.12001 -0.5,-0.31l0,0l-0.63,-0.51q-0.50999,-0.12 -1.1,-0.25q-0.6,-0.12 -1.17,-0.25l0,0l-0.94,-0.25l-0.26,-0.06q-0.69,0 -1.82,-0.13l0,0l-2.77,-0.25q-1.44999,0 -4.35,0.12l0,0q-1.76,0.07 -4.85,0.32l0,0l-1.38,0.19q-1.26,0.31 -2.52,0.38l0,0q-0.88,0.12 -2.52,0.25l0,0l-3.64999,0.37999l-1.32,0.12001l-0.32,0q-0.69,0 -1.01,-0.44l0,0q-0.12,-0.13 -0.37,-0.13l0,0l-0.38,0.07l-0.25,0.19q-0.07,0.06 -0.16,0.18999q-0.09,0.12001 -0.22001,0.18001l0,0q-0.19,0.06999 -0.38,0.03999q-0.19,-0.03999 -0.38,0.03l0,0q-0.06,0 -0.27999,0.06001q-0.22001,0.06 -0.22001,0.31999l0,0l-0.06,0.69l0.44,0.25q-0.19,0.31 0.19,0.5l0,0l0.44,0.38q0.5,0.69 0.75,1.7l0,0q0.13,0.69 0.25,1.07l0,0q0.45,1.01 1.33,0.82l0,0q0.06,-0.06 0.09,-0.03q0.03,0.03 0.1,0.03l0,0q0.12,0.06 0.44,0.06l0,0q0.82,0 1.26,-0.56l0,0q0.25,-0.26 0.5,-0.26l0,0q0.31,0 1.32,-0.06q1.01,-0.06 1.83,-0.25l0,0q0.69,-0.13 1.54,-0.19q0.85,-0.06 1.17,-0.06l0,0q1.38,-0.13 2.07,-0.32l0,0l0.89,-0.19l0.56,-0.06q0.32,-0.06 0.7,-0.16q0.37,-0.09 0.69,-0.09l0,0l3.9,-0.19l3.28,0.06q0.25,0 1.26,0q1,0 1.89,0.19l0,0q0.06,0 0.18,0.07q0.13,0.06 0.19,0.12l0,0q0.57,0.57 0.57,1.32l0,0q0,0.44 -0.19,0.95l0,0q-0.13,0.12 -0.13,0.5l0,0q-0.12,-0.06 -0.37,-0.06q-0.25,0 -0.38,-0.06l0,0q-0.82,-0.57 -1.51,-0.57l0,0q-0.51,0 -1.17,-0.03q-0.66,-0.03 -1.54,0.03l0,0l-3.27,0.44l-1.45,0.19q-2.77,0.38 -2.9,0.38l0,0q-0.63,0.12 -2.14,0.25l0,0l-2.08,0.19q-1.26,0.12 -4.22,0.63l0,0q-0.56,0.06 -1.35,0.19q-0.79,0.12 -1.8,0.19l0,0q-2.7,0.31 -4.28,0.94l0,0l-1.7,0.57l-0.63,0.19q0,0 1.07,1.07l0,0l-0.12,0.06l-0.32,0q0.13,0.75 0.13,0.82l0,0q0,1.95 -0.06,2.83l0,0l0,1.26l-0.32,2.58q-0.06,0.44 -0.06,1.32l0,0l-0.13,1.39q-0.12,0.19 -0.16,0.5q-0.03,0.32 -0.03,0.51l0,0l-0.38,5.16q-0.06,0.06 0,0.22q0.07,0.16 0.07,0.28l0,0q-0.07,0.26 -0.16,0.48q-0.09,0.22 -0.16,0.47l0,0q-0.25,1.26 -0.25,1.89l0,0q-0.06,0.19 -0.19,0.57q-0.12,0.37 0.06,0.56l0,0q-0.25,0.38 -0.25,0.44l0,0q-0.31,0.76 -0.69,1.83l0,0l-0.57,2.01l-0.63,2.52q0,0 -0.12,0.13l0,0l-1.51,1.32q-0.26,0.19 -0.6,0.54q-0.35,0.34 -0.85,0.72l0,0l-0.06,0.19q0,0.13 0.09,0.53q0.09,0.41 0.25,0.76q0.16,0.35 0.47,0.54l0,0l0.07,0.06q0.19,0.25 0.34,0.38q0.16,0.12 0.41,0.12l0,0q1.07,0 2.21,-0.69l0,0q0.5,-0.32 1,-0.32l0,0q0.32,0 0.51,0.07l0,0q0.25,0 0.31,-0.07l0,0l0.38,-0.75q0.32,-0.32 0.44,-0.38l0,0q0.25,-0.12 1.01,-0.25l0,0l-0.06,-0.06q0,-0.07 0.06,-0.19q0.06,-0.13 0.12,-0.19l0,0q0.26,-0.13 0.35,-0.44q0.1,-0.32 0.16,-0.44l0,0q0.25,-0.32 0.38,-0.79q0.12,-0.47 0.19,-0.72l0,0l0.62,-2.52q0,-0.26 0.13,-0.76l0,0l0.06,-1.76l0.19,-2.14l0.13,-3.15q0,-0.38 0.12,-1.13l0,0q0.76,1 1.52,1.38l0,0q0.18,0.13 0.44,0.16q0.25,0.03 0.44,-0.16l0,0q0.19,-0.13 0.63,-0.13l0,0l1.13,0l2.96,0l2.58,0l1.77,0.07q1.25,0.12 1.88,0.12l0,0q0.89,0 1.89,-0.19l0,0q0.32,0 0.92,-0.09q0.59,-0.09 1.1,-0.09l0,0q2.14,0.12 3.21,0.12l0,0q1.07,0 2.96,-0.12l0,0q0.25,0 0.6,-0.1q0.34,-0.09 0.6,-0.16l0,0q0.12,0 0.5,-0.09q0.38,-0.1 0.63,0.03l0,0q0.63,0.13 0.88,0.13l0,0q0.19,0 0.69,-0.13l0,0q0.7,-0.19 1.39,-0.06l0,0q1.13,0 1.7,-0.07l0,0q0.19,-0.06 0.66,-0.22q0.47,-0.15 0.79,-0.47l0,0q0.19,-0.12 0.63,-0.75l0,0l-0.25,-0.32q0.25,-0.38 0.37,-0.38l0,0q0.19,-0.06 1.14,-0.25l0,0q0,-0.19 -0.13,-0.56l0,0l0.13,0.06l0.37,-0.44q0.13,-0.13 0.26,-0.51l0,0l-0.38,-0.19q0,-0.12 -0.19,-0.28q-0.19,-0.16 -0.44,-0.16l0,0q-1.45,-0.25 -1.95,-0.31l0,0q-0.95,-0.13 -2.33,-0.25l0,0q-0.38,0 -0.76,0.06q-0.38,0.06 -0.82,0.06l0,0q-1.82,0 -2.77,0.07l0,0l-0.63,0.06q-0.56,0 -0.88,-0.25l0,0l0.06,-0.32l0.51,-1.19q0,-0.07 0.06,-0.26q0.06,-0.18 0.38,-0.12l0,0q0,0.06 0.06,0q0.06,-0.06 0.06,-0.19l0,0q0.26,-0.44 0.32,-0.82l0,0l0.38,-1.07q0.06,-0.19 0.03,-0.38q-0.03,-0.19 0.03,-0.31l0,0l0.06,-1.64l-0.06,-1.39q0,-0.62 0.13,-0.94l0,0q0.12,-0.25 -0.07,-0.38l0,0q-0.44,-0.56 -0.75,-0.63l0,0q-0.19,-0.06 -0.73,-0.25q-0.53,-0.19 -0.78,-0.56999l0,0l-0.32,0.12999l-1.32,0l-0.13,0q-0.56,0 -0.31,0.57l0,0q0.25,0.75 0.25,1l0,0l0,2.84l0.06,2.45l0,1.77q0,0.63 -0.44,1.07l0,0q-0.19,0.19 -0.47,0.44q-0.28,0.25 -0.35,0.44l0,0q-0.19,0.31 -0.75,0.31l0,0l-0.32,0l-2.45,0.19l-0.51,0q0.13,-1 0.25,-1.63l0,0l0.07,-0.13l0.12,-0.25q0.13,-1.63999 0.26,-2.33l0,0q0,-0.25 0.09,-0.6q0.09,-0.35 0.16,-0.6l0,0q0,-1.07 0.44,-2.27l0,0q0.12,-0.37 0.12,-0.69l0,0q0,-0.82 -0.88,-1.13l0,0q-0.63,-0.25 -1,-0.51q-0.38,-0.25 -0.7,-0.69l0,0q0,-0.06 -0.09,-0.12q-0.1,-0.06999 -0.16,0l0,0q-0.38,0.06 -0.69,0.31l0,0q-0.13,0.06 -0.1,0.25q0.04,0.19 0.04,0.25l0,0q-0.07,0.13 -0.07,0.32l0,0q-0.25,1.01 -0.31,1.57l0,0q-0.44,3.4 -0.44,5.73l0,0l0,2.52q0,0.32 -0.26,0.38l0,0l-0.81,0.06l-5.61,0.26q-0.12,0 -0.25,-0.1q-0.13,-0.09 -0.25,-0.16l0,0q-0.25,0.26 -0.38,0.26l0,0q-0.63,0.06 -1.95,0.06l0,0q-1.39,0 -3.15,0.44l0,0l0,-0.13l0.25,-2.77l0.19,-2.96q0,-0.5 0.13,-1.63l0,0q0.12,-2.15 0.06,-3.34l0,0l0,-0.13q0,-0.5 0.57,-0.38l0,0q0.18,0 0.25,-0.06l0,0q0.56,-0.31 1.64,-0.31l0,0q0.37,0.12 1.25,0.12l0,0q1.45,-0.25 2.33,-0.31l0,0q0.45,0 1.07,-0.13l0,0l1.2,-0.25q1.07,-0.19 2.02,-0.19l0,0q0.69,-0.06 1.22,-0.03q0.54,0.03 0.92,0.03l0,0q0.38,0 0.72,-0.06q0.35,-0.06 0.66,-0.06l0,0l2.27,-0.13l1.95,-0.13q0.76,0 2.14,-0.12l0,0q0.38,0 0.73,-0.07q0.34,-0.06 0.78,-0.06l0,0q0.63,-0.06 1.96,-0.06l0,0q0.56,0 1,-0.25q0.44,-0.26 1.14,-0.82l0,0q0.06,-0.06 0.06,-0.16q0,-0.09 0.06,-0.16l0,0l0.19,-0.63l0.13,-0.5q0,-0.5 0.19,-0.69l0,0l0.12,-0.25q0,-0.12999 -0.31,-0.75999l0,0q0.12,-0.13 0.22,-0.28q0.09,-0.16 0.16,-0.22l0,0l0.31,-0.19q0.13,0.06 0.32,0.06l0,0q0.25,0 0.44,-0.16q0.18,-0.15 0.25,-0.22l0,0q0.38,-0.25 0.72,-0.53q0.35,-0.29 0.6,-0.48l0,0l0.44,-0.37q0.06,-0.07 0.19,-0.07l0,0l0.13,-0.12q0.56,-1.01 0.69,-1.32l0,0q0.12,-0.45 0.57,-0.38l0,0l0,-0.32q0,-0.38 0.06,-0.56q0.06,-0.19 0.38,-0.26l0,0q0.12,-0.75 0.25,-1.13l0,0l0.5,-1.01zm-6.3,15.75q-0.37,0.06 -0.94,0.06l0,0l-0.19,0.19q0.13,0.5 0.25,0.69l0,0q0.07,0.18999 0.19,0.43999q0.13,0.25 0.13,0.5l0,0q0,0.07 0.12,0.26q0.13,0.19 0.19,0.25l0,0q0,0.06 0.07,0.09q0.06,0.03 0.06,0.1l0,0q0.12,0.44 0.47001,0.78q0.35,0.35 0.47,0.48l0,0q0.07,0.12 0.22,0.19q0.16,0.06 0.29,0l0,0q0.12,0 0.34,-0.1q0.22,-0.09 0.35,-0.16l0,0q0.57,-0.19 0.63,-0.19l0,0l1.51,0.13l0.25,0q0.32,0 0.44,-0.13q0.13,-0.12 0.19,-0.44l0,0q0.13,-0.37 0.13,-0.44l0,0q0.06,-0.12 0.31,-0.47q0.26,-0.35 0.26,-0.6l0,0q0,-0.31 -0.26,-0.37l0,0l-1.57,-0.50999q-0.13,0 -0.32,-0.06q-0.18,-0.06001 -0.31,-0.06001l0,0l-2.77,-0.37999l-0.51,-0.25l-0.00001,0zm-23.42,4.09l0.5,0.56999q0,0.12001 0.19,0.12001l0,0q0.19,0.06 0.51,0.28q0.31,0.22999 0.63,0.09999l0,0l0,0.06001q0.31,0.06999 0.59,0.12999q0.29,0.06 0.54,0.12001l0,0l0.38,0.06999q0.75,0 1.19,-0.75999l0,0q0,0 0.76,-1.13l0,0q0.13,-0.19 0.35,-0.41q0.22,-0.22 0.28,-0.47l0,0q0.13,-0.38 0.13,-0.44l0,0q0,-0.51 -0.89,-0.51l0,0q-0.19,0 -0.44,-0.12l0,0q-0.19,-0.07 -0.38,-0.22q-0.18,-0.16 -0.4,-0.16q-0.22,0 -0.48,0.19l0,0q-0.25,0.06 -0.56,0.06q-0.32,0 -0.51,0.06l0,0q-1.19,0.38 -1.95,1.7l0,0q-0.31,0.44 -0.44,0.76l0,0zm16.56,24.62q-0.12,0 -0.35,0.09q-0.22,0.1 -0.4,0.1l0,0q-0.32,0 -0.79,-0.06q-0.47,-0.07 -0.79,0l0,0q-0.75,0 -1.29,0.06q-0.54,0.06 -0.85,0.12l0,0q-0.44,0.13 -0.76,-0.06l0,0q-0.06,0 -0.06,-0.56l0,0l0,-2.27001q0,-0.31999 0.03,-0.84999q0.03,-0.54 -0.03,-0.91l0,0l0,-0.51q0,-0.75 0.06,-1.2l0,0l0.38,-3.14l0,-0.44l0.25,-2.52q0,-0.51 -0.25,-1.14l0,0q-0.06,-0.37 -0.63,-1.44l0,0l-0.19,-0.57q-0.63,0.31 -1.63,0.31l0,0l-0.13,0.51q-0.06,1.13 -0.31,2.96l0,0q-0.07,0.56 -0.04,1.1q0.04,0.53 -0.03,1.04l0,0l-0.12,2.2q-0.13,2.27 -0.26,3.21l0,0l-0.06,1.58l0,0.44l0,0.44q0,0.94 -0.31,1.38l0,0l-0.25,0.44q0,0.45 0.06,0.63l0,0q0.06,0.19 0.25,0.35q0.19,0.16 0.31,0.22l0,0l0.38,0.44q0.07,0.13 0.1,0.29q0.03,0.15 0.15,0.28l0,0q0.13,0.12 0.32,0.47q0.19,0.35 0.5,0.47l0,0l0.44,0.32q0.38,0.25 0.63,0l0,0q0.7,-0.51 1.58,-0.69l0,0l3.9,-0.63l0.63,-0.32q0.06,-0.12 0.19,-0.41q0.13,-0.28 0.32,-0.41l0,0q0.25,-0.38 0.25,-0.56l0,0q0.06,-0.32 0,-0.38q-0.07,-0.07 -0.38,-0.13l0,0q-0.19,0 -0.41,-0.09q-0.22,-0.1 -0.41,-0.16l0,0zm0,-5.04q0.57,0.44 0.63,0.57l0,0l1.01,1.13q1.95,2.21 3.52,3.59l0,0q2.02,1.83 2.46,2.21l0,0q2.27,1.88 4.09,3.27l0,0q2.52,1.94999 4.54,2.45999l0,0q0.19,0.06 0.44,0.06l0,0q0.25,0 0.5,-0.32l0,0l0.38,0.13q0.13,-0.13 0.41,-0.27999q0.28,-0.16001 0.35,-0.48001l0,0q0.06,-0.06 0.22,-0.08999q0.15,-0.03 0.22001,-0.09l0,0q0.44,-0.07 0.69,-0.26q0.25,-0.19 0.44,-0.63l0,0q0,-0.12 0.12999,-0.12l0,0q0.12001,-0.19 0.34,-0.44q0.22001,-0.25 0.29,-0.47q0.06,-0.23 -0.06999,-0.48l0,0l0.43999,-0.19l-0.18999,-0.19q0.56999,-0.5 0.81999,-1.38l0,0l-0.56,0.19q-0.38,0.12 -0.57,0.12l0,0q-0.31999,-0.06 -0.75999,-0.37l0,0l0.07,-0.32q0,0 0.31,-0.31l0,0l-0.5,-0.25q-0.88,-0.51 -1.39,-0.7l0,0l-1.38,-0.75q-0.63,-0.32 -2.46,-1.58l0,0l-2.39,-1.63l-2.27,-1.58l-0.25,-0.19q-0.19,-0.12 -0.38,-0.31q-0.19,-0.19 -0.44,-0.38l0,0q-0.13,-0.13 -0.38,-0.32q-0.25,-0.18 -0.5,-0.5l0,0q-0.5,-0.5 -1.51,-1.01l0,0l-1.95,-1l-2.02,-0.76q-0.06,0 -0.44,-0.13l0,0q-0.88,-1.13 -1.39,-1.63l0,0q-0.06,-0.07 -0.18,-0.07l0,0l-0.38,-0.06q-0.25,0.44 -0.69,0.38l0,0q-0.19,0 -0.19,0.12l0,0q-0.38,0.38 -0.51,0.63l0,0q-0.5,0.51 -0.75,0.95l0,0q-0.82,1.13 -0.95,1.45l0,0q-0.75,1.51 -1.07,2.33l0,0q-0.06,0.19 -0.03,0.38q0.03,0.18 0.16,0.25l0,0q0.12,0.06 0.31,0.06l0,0q0.32,0 0.57,-0.19l0,0l0.76,-0.5q0.62,-0.38 1.51,-0.7l0,0q0.12,-0.12 0.25,-0.18q0.12,-0.07 0.19,0l0,0q0.12,0.12 0.34,0.28q0.22,0.16 0.16,0.28l0,0l-0.00001,0z" fill="#2D7827" stroke="#2D7827" stroke-width="0.105" data-glyph-w="62.97" data-glyph-h="75.564" data-glyph-ascender="62.97" data-glyph-descender="-12.594" id="svg_91"/>
      <path d="m370.52001,213.91001q-0.26,-0.13 -0.29,-0.22q-0.03,-0.1 0.1,-0.41l0,0q0.25,0 0.37,-0.06l0,0q0.7,-0.13 0.95,-0.63l0,0q0.12,-0.26 0.09,-0.35q-0.03,-0.09 -0.28,-0.22l0,0q0,0 -0.31,-0.31l0,0l0.37,-0.26l-0.37,-0.31q0.5,-0.13 0.81,-0.25l0,0q0.19,0 0.32,-0.32l0,0l0.19,-0.57l-0.25,-0.44q0,-0.31 -0.19,-0.37l0,0q-0.26,-0.26 -0.76,-0.51l0,0l-0.06,-0.12l-0.25,-0.19q-0.26,-0.07 -0.57,-0.13q-0.32,-0.06 -0.69,-0.06l0,0q-1.01,-0.19 -3.34,-0.44l0,0l-0.5,0q-0.82,0 -1.2,0.06l0,0q-1.2,0 -3.46,0.13l0,0l-2.46,0l-1.2,-0.07q-0.25,-0.06 -0.44,-0.03q-0.19,0.03 -0.31,0.03l0,0l-1.14,-0.06q-1.76,0.13 -2.51,0.13l0,0l-1.77,-0.07l-0.5,0l-0.63,0q-0.57,0 -0.82,0.13l0,0l-0.19,0l-0.25,-0.06l-0.82,0q-0.38,0 -0.97,-0.03q-0.6,-0.04 -1.36,0.03l0,0l-2.83,0q-2.65,0 -3.97,0.06l0,0q-1.01,0 -1.76,0.06q-0.76,0.07 -1.26,0.13l0,0l-0.88,0q-0.32,0 -0.95,0.12l0,0l-1.51,0.07q-0.31,0 -0.82,0.03q-0.5,0.03 -1.19,0.16l0,0q-1.01,0.06 -1.83,0.19q-0.82,0.12 -1.45,0.18l0,0q-0.5,0.07 -1.35,0.22q-0.85,0.16 -1.42,0.1l0,0q-0.19,-0.06 -0.57,0.06l0,0l-1.44,0.07l-0.45,-0.19q-0.12,-0.26 -0.47,-0.32q-0.34,-0.06 -0.6,0.06l0,0q-0.18,0.07 -0.44,0.19q-0.25,0.13 -0.56,0.26l0,0l-0.51,0.18l-0.63,0.51q-0.06,0.06 -0.22,0.22q-0.15,0.16 -0.09,0.41l0,0q0.06,0.06 0.12,0.16q0.07,0.09 0.07,0.15l0,0l0,0.13q0,0.12 0.09,0.25q0.1,0.13 0.16,0.19l0,0q0.38,0.5 0.31,1.01l0,0q-0.06,0.19 -0.06,0.63l0,0q0,0.69 0.38,1.44l0,0q0.06,0.13 0.06,0.57l0,0q0,0.13 -0.31,0.13l0,0q-0.32,0.18999 -0.07,0.43999l0,0q0.26,0.25 0.51,0.31001l0,0l0.25,0l1.95,0.06999q1.39,-0.13 2.21,-0.25999l0,0q0.63,-0.06 2.2,-0.31l0,0l1.64,-0.13q0.25,-0.06 0.53,-0.12q0.29,-0.07 0.66,-0.07l0,0l3.21,0q0,0 0.04,0.03999q0.03,0.03001 0.03,0.03001l0,0l0.12,0q0.13,0 0.38,0q0.25,0 0.44,0.12l0,0q1.64,-0.12 2.46,-0.06l0,0l0.06,0l0.69,-0.06l0.38,0l0.69,-0.07l1.77,0.07q1.63,0 2.39,0.06l0,0q0.25,0 0.88,0.12999l0,0q-0.19,0.12001 -0.31,0.31001q-0.13,0.18999 -0.32,0.31999l0,0l-0.94,0.69q-0.57,0.38 -1.7,1.26l0,0l-1.2,0.94l-0.88,0.7l-1.07,0.88l-0.51,0.44q-0.12,0.12 -0.47,0.31q-0.34,0.19 -0.41,0.51l0,0q-0.12,0.12 -0.12,0.12l0,0l-0.63,0.44l-0.63,0.32q-0.13,0.06 -0.38,0.31l0,0q-0.06,0.07 -0.28,0.25q-0.22,0.19 -0.54,0.13l0,0q-0.44,0.57 -0.19,1.01l0,0q0.13,0.19 0.13,0.44l0,0q0,0.25 -0.06,0.44q-0.07,0.19 -0.07,0.44l0,0q0,0.13 -0.03,0.35q-0.03,0.22 0.03,0.41l0,0q0.13,0.18 -0.06,0.5l0,0q-0.32,0.88 -0.19,1.45l0,0q0.06,0.25 -0.06,0.56l0,0q-0.32,0.51 0,0.95l0,0q0.12,0.19 0.34,0.19q0.22,0 0.35,0l0,0l0.19,0q0.31,0 0.66,-0.13q0.35,-0.12 0.47,-0.19l0,0q0.13,0 0.38,-0.09q0.25,-0.1 0.44,-0.1l0,0q0.32,-0.06 0.6,-0.03q0.28,0.03 0.47,0.03l0,0q0.32,0 0.95,-0.12l0,0l1.32,-0.38q0.19,-0.06 0.41,-0.13q0.22,-0.06 0.41,-0.12l0,0q0.12,-0.06 0.34,-0.16q0.22,-0.09 0.29,-0.22l0,0q0,-0.06 0.12,-0.28q0.13,-0.22 0.38,-0.22l0,0q0,0 0.13,-0.13l0,0q0.75,-0.63 1.45,-0.88l0,0q0.12,0 0.12,-0.13l0,0q0.13,-0.31 0.76,-0.56l0,0q0.06,0 0.41,-0.07q0.34,-0.06 0.53,-0.44l0,0q0.06,-0.06 0.19,-0.15q0.13,-0.1 0.13,-0.16l0,0q0,-0.44 0.31,-0.44l0,0q0.06,-0.13 0.25,-0.69l0,0q0.19,-0.32 0.07,-0.45l0,0q-0.13,-0.25 0.06,-0.44l0,0l0.19,-0.5q0.06,-0.25 0.38,-0.25l0,0l1,0q0.25,0 0.44,0.06q0.19,0.06 0.38,0.13l0,0l-0.63,0.88q-0.25,0.12 -0.38,0.25l0,0q-0.94,0.94 -0.94,0.94l0,0l-1.51,1.33l-1.76,1.45q-1.52,1.25 -2.27,1.95l0,0l-0.38,0.38q-1.51,1.32 -1.57,1.38l0,0q-0.13,0.13 -0.41,0.41q-0.29,0.28 -0.6,0.35l0,0q0,0 -0.25,0.25l0,0q-0.07,0.06 -0.29,0.41q-0.22,0.34 -0.66,0.41l0,0q0,0 -0.03,0.03q-0.03,0.03 -0.03,0.03l0,0l-1.01,0.76l-0.25,0.31q-0.57,0.25 -0.57,0.88l0,0q0,0.88 0.44,1.32l0,0l0.32,0.51l0,0.25q0,0.25 -0.1,0.66q-0.09,0.41 0.04,0.66l0,0q0,0.63 0.12,0.88l0,0l0.44,0.95q0.25,0.44 0.51,0.57l0,0q0.25,0.25 0.44,0.25l0,0q0.5,0.06 0.85,0.03q0.34,-0.03 0.53,-0.03l0,0q0.7,0.06 2.02,0.06l0,0l0.69,-0.06q0.32,0 0.54,0.06q0.22,0.06 0.47,0.06l0,0q1.51,0 4.28,-0.12l0,0q0.94,0 1.64,-0.07q0.69,-0.06 1.19,-0.12l0,0q0.32,0 0.95,-0.06q0.63,-0.07 1.07,-0.13l0,0q0.82,-0.13 1.13,-0.38l0,0q0.38,-0.25 0.69,-0.5q0.32,-0.25 0.57,-0.44l0,0l0.06,-0.19l0.32,-0.44q0.31,-0.32 1.07,-0.82l0,0l0.31,-0.44l0.95,-0.95q0.06,-0.06 0.06,-0.25l0,0q0,0 -0.03,-0.03q-0.03,-0.03 -0.03,-0.03l0,0l0.75,-0.69l0.19,-0.32l0.19,-0.63q0,-0.12 0.03,-0.28q0.04,-0.16 -0.03,-0.22l0,0q-0.12,-0.13 -0.22,-0.38q-0.09,-0.25 -0.16,-0.32l0,0l0,-0.18l0.07,-1.01q0,-0.19 -0.13,-0.35q-0.12,-0.16 -0.25,-0.16l0,0q-0.19,0 -0.32,0.13q-0.12,0.13 -0.25,0.19l0,0q-0.31,0.13 -0.37,0.06l0,0q-0.38,-0.19 -0.7,0.13l0,0q-0.31,-0.25 -0.56,-0.44q-0.26,-0.19 -0.45,-0.32l0,0l-0.31,0.13l0.13,0.38l0,0.12q0,0.25 -0.32,0.38l0,0q-0.25,0.06 -0.38,-0.31l0,0q-0.12,-0.38 -0.37,-0.32l0,0l0,0.13q0.06,0.25 0,0.31q-0.07,0.06 -0.32,0.06l0,0l-0.19,0q-0.06,0.07 -0.34,0.29q-0.29,0.22 -0.16,0.6l0,0l0,0.06l-0.44,-0.19q0,0.13 -0.03,0.22q-0.04,0.09 0.03,0.22l0,0q0.12,0.76 0.25,1.13l0,0l0.06,0.32q0,0.44 -0.82,0.82l0,0l-0.94,0.25q-0.19,0.06 -0.5,0.22q-0.32,0.16 -0.51,0.16l0,0q-0.38,0.06 -0.85,0.06q-0.47,0 -0.66,0l0,0q-0.5,0.06 -1.01,0.03q-0.5,-0.03 -1,0.03l0,0l-0.63,0q-0.38,0 -1.83,-0.31l0,0l-0.06,0l0.12,-0.25l-0.06,0q0,-0.07 -0.03,-0.13q-0.03,-0.06 0.03,-0.06l0,0q0.63,-0.63 0.75,-0.7l0,0q0,-0.06 0.19,-0.22q0.19,-0.15 0.38,0.04l0,0q0.06,-0.07 0.06,-0.16q0,-0.1 0.07,-0.16l0,0q0.19,-0.12 0.56,-0.41q0.38,-0.28 0.57,-0.53l0,0q0.13,-0.07 0.38,-0.22q0.25,-0.16 0.19,-0.35l0,0q0.12,-0.13 0.5,-0.38l0,0l0.44,-0.38l1.14,-0.88l1.51,-1.07l1.13,-0.94l0.57,-0.51l1.7,-1.51q0.12,-0.12 0.25,-0.34q0.13,-0.22 0.25,-0.35l0,0q0.06,-0.06 0.25,-0.32q0.19,-0.25 0.44,-0.31l0,0q0.07,0 0.07,-0.06q0,-0.07 0.06,-0.13l0,0q0.13,-0.12 0.38,-0.41q0.25,-0.28 0.44,-0.41l0,0q0.5,-0.31 0.94,-0.85q0.44,-0.53 0.57,-0.72l0,0q0.57,-0.57 0.63,-1.26l0,0l0.06,-0.32q0,-0.69 -0.56,-0.94l0,0q-0.26,-0.13 -0.32,-0.25l0,0q-0.06,-0.25 -0.31,-0.32q-0.26,-0.06 -0.38,-0.12l0,0l-0.69,-0.44q0,0 -0.13,-0.13l0,0l-1.26,-0.18999q-0.13,0 -0.31,-0.06001q-0.19,-0.06 -0.26,-0.12999l0,0q-0.25,-0.25 -0.69,-0.12001l0,0l-0.44,-0.31999l-0.31,-0.06q-0.13,0.19 -0.45,0.19l0,0q-0.88,0 -2.39,0.12l0,0q-1.2,0.13 -2.14,0.56999l0,0q-0.57,0.32 -1.01,0.63l0,0q-0.69,0.31 -0.69,0.82l0,0q0,0.57 -0.5,1.07l0,0l-0.13,0.12l-0.76,1.64q-0.44,0.69 -1.07,0.63l0,0l-0.63,0q-0.37,-0.06 -0.66,-0.03q-0.28,0.03 -0.53,0.03l0,0q-0.38,0 -0.63,-0.06l0,0q-0.44,-0.13 -0.79,-0.16q-0.34,-0.03 -0.53,-0.03l0,0q-0.38,-0.13 -0.57,-0.25l0,0l1.2,-1.07q0.94,-0.76 1,-0.82l0,0q1.64,-1.45 1.58,-1.39l0,0q0.56,-0.56 1.26,-1.06999l0,0l1.51,-1.45q0.12,-0.12 0.28,-0.28q0.16,-0.16 0.41,-0.28l0,0q0.38,-0.25 0.6,-0.73q0.22,-0.47 0.16,-0.91l0,0l-0.07,-0.57q0,-0.25 0.07,-0.31q0.06,-0.06 0.31,0l0,0q0.38,0.19 0.88,0.19l0,0q0.07,0 0.63,-0.19l0,0l0.07,0.13q0.06,0.06 0.15,0.06q0.1,0 0.16,0.06l0,0l0.32,0.06q0.31,0.07 0.88,0.07l0,0l1.07,0.06l0.56,0l0.7,0.19q0.56,0.06 0.97,0.03q0.41,-0.03 0.66,-0.03l0,0q0.82,0 1.2,0.12l0,0q0.06,0.07 0.13,0.04q0.06,-0.04 0.12,-0.04l0,0l0.44,0q0.88,0.13 1.33,0.13l0,0q0.06,0.06 0.12,0q0.06,-0.06 0.13,-0.06l0,0l0.88,0.12l1.95,0.07l0.76,-0.07q0.37,0 1.13,0.13l0,0q0.19,0 0.25,-0.06l0,0q0.19,0 0.57,-0.1q0.38,-0.09 0.69,-0.03l0,0q0.13,0.06 0.51,0.06l0,0q0.44,-0.06 1.32,-0.06l0,0l1.45,0q0.5,-0.06 0.94,-0.16q0.44,-0.09 0.95,-0.15l0,0l0.62,-0.19q0.13,-0.07 0.29,-0.19q0.16,-0.13 0.41,-0.19l0,0q0.25,-0.06 0.38,-0.44l0,0q0,-0.13 0.06,-0.19q0.06,-0.06 0.12,-0.06l0,0q0.57,0 0.57,-0.7l0,0q0,-0.06 0,-0.06l0,0q0.57,-0.06 0.95,-0.25l0,0zm-27.02,30.35q0.06,0.13 0.13,0.25q0.06,0.13 0.06,0.31999l0,0q-0.13,1.76 -0.25,2.52001l0,0l-0.25,1.88999l-0.13,1.38l-0.19,0.95l0,2.07q-0.06,0.63 -0.06,1.77l0,0q-0.13,0.75001 -0.13,1l0,0q0,0.38 0.22,0.82q0.22,0.44 0.35,0.76l0,0q0.06,-0.13 0.19,-0.38q0.12,-0.25 0.38,-0.38l0,0q0.25,-0.12 0.41,-0.09q0.15,0.03 0.34,0.22001l0,0q0.25,0.37999 0.44,0.5l0,0l0.07,0q0.18,0 0.4,-0.09q0.23,-0.1 0.29,-0.22001l0,0q0.5,-1.32999 0.63,-1.83l0,0q0.12,-0.44 0.09,-1.04q-0.03,-0.6 -0.03,-0.85l0,0q0.06,-0.5 0.03,-0.84999q-0.03,-0.34 -0.03,-0.6l0,0l-0.06,-1.95q0,-0.19 0.12,-0.69l0,0l0,-2.39q0,-0.51 -0.12,-1.39l0,0q-0.07,-0.31 -0.16,-0.63q-0.09,-0.31 -0.16,-0.63l0,0q-0.12,-0.44 -0.53,-0.94q-0.41,-0.51 -0.6,-0.82l0,0l0,0.44l-0.25,-0.25q-0.38,0.12 -0.63,0.25l0,0l-0.32,0.82l-0.25,0.06zm-14.99,14.60999l1.39,-0.75999q0.69,-0.31001 0.82,-0.44l0,0l0.82,-0.56l1.7,-1.14q0.5,-0.31 0.82,-0.56q0.31,-0.26 0.56,-0.44l0,0l1.2,-0.76l1.64,-1.39q0.81,-0.75 1.07,-1.44l0,0l0.06,-0.32q0.06,-0.19 0.13,-0.41q0.06,-0.22 0.06,-0.53l0,0l-0.25,-1.51q-0.13,-0.07 -0.26,-0.13q-0.12,-0.06 -0.25,-0.13l0,0q-0.12,-0.12 -0.41,-0.15q-0.28,-0.04 -0.47,0.09l0,0l-0.38,0.19q-0.06,0.06 -0.15,0.06q-0.1,0 -0.16,0.07l0,0q-0.19,0.18 -0.95,0.56l0,0q-0.18,0.07 -0.56,0.32l0,0q-0.13,0.06 -0.22,0.12q-0.1,0.07 -0.22,0.13l0,0q-0.26,0.31 -1.14,0.75l0,0q-0.19,0.13 -0.41,0.29q-0.22,0.16 -0.41,0.28l0,0q-0.44,0.32 -0.88,0.54q-0.44,0.22 -0.75,0.41l0,0l-0.57,0.5q-0.13,0.13 -0.5,0.25l0,0l-0.44,0.32q-0.57,0.31 -0.7,0.44l0,0l-0.82,0.5l-0.25,0.13q-0.25,0 -0.37,0.37l0,0q-0.26,0.51 -0.32,0.76l0,0q-0.13,0.25 -0.13,0.44l0,0l0,0.5q0,0.51 -0.25,0.7l0,0l0.38,0.87999l0,0.13q-0.06,0.06 -0.06,0.15q0,0.1 -0.07,0.16l0,0q0,0.13 -0.06,0.13l0,0q-0.38,0.18 -0.38,0.56l0,0l0.32,0.44l0.25,-0.12q0.63,-0.38 0.94,-0.63l0,0q0.26,-0.13 0.38,-0.1q0.13,0.03 0.25,0.35l0,0zm22.55,-7.75l0.69,0.7l0.63,0.63q0.13,0.06 0.38,0.15q0.25,0.1 0.31,0.29l0,0q0.13,0.25 0.38,0.41q0.25,0.15 0.38,0.22l0,0q0.5,0.38 0.5,0.75l0,0q0,0.13 0.25,0.38l0,0q0.19,0.19 0.51,0.32l0,0q1.64,1 3.27,1.57l0,0q0.76,0.31 2.27,0.82l0,0q1.38,0.38 2.08,0.5l0,0q0.5,0.07 1.38,0.07l0,0l0.13,0q0.25,0 0.69,-0.1q0.44,-0.09 0.76,-0.03l0,0l0.12,0q0.38,0 0.7,-0.32l0,0l0.12,-0.06l0.13,0q0.31,0 0.63,-0.31q0.31,-0.32 0.5,-0.44l0,0l-0.06,-0.13l-0.25,-0.32l0.44,-0.18q0.19,0 0.44,-0.13l0,0q0.44,-0.44 0.88,-0.5l0,0l0.38,-0.07q0,0 0.03,-0.03q0.03,-0.03 0.03,-0.03l0,0l-0.25,-0.19q-0.13,-0.06 -0.25,-0.31l0,0l-0.19,-0.76q0,-0.12 -0.13,-0.12l0,0l-0.44,-0.07q-0.5,0.13 -0.76,0.13l0,0q-0.81,0 -1.88,-0.69l0,0l-0.76,-0.19q-0.94,-0.26 -1.26,-0.32l0,0q-0.57,-0.12 -1.95,-0.25l0,0l-2.52,-0.5l-1.32,-0.38l-2.08,-0.63l-1.32,-0.38q-0.7,-0.25 -1.2,-0.31l0,0q-1.01,-0.13 -1.57,-0.26l0,0l0.19,0.32l-0.45,0.19q0.13,0.25 -0.03,0.38q-0.15,0.12 -0.15,0.25l0,0q-0.13,-0.07 -0.38,-0.07l0,0z" fill="#2D7827" stroke="#2D7827" stroke-width="0.105" data-glyph-w="62.97" data-glyph-h="75.564" data-glyph-ascender="62.97" data-glyph-descender="-12.594" id="svg_90"/>
      <path d="m438.46001,215.55l-0.63,-0.06999q-0.57,0 -0.82,-0.19l0,0q-0.63,-0.37 -1.13,-0.37l0,0l-0.38,0q-0.5,0 -0.69,-0.19l0,0q-0.25,-0.25 -0.51,-0.25l0,0q-0.25,-0.07 -0.75,-0.07l0,0l-1.14,0.07q-0.31,0 -0.94,-0.13l0,0l-3.34,0q-0.25,-0.06 -0.63,-0.03q-0.37,0.03 -0.56,0.03l0,0q-1.14,0 -1.64,0.06l0,0l-2.27,0.19l-0.25,-0.12q0,-0.13 0.06,-0.19l0,0l0.76,-1.14q0.06,-0.06 0.06,-0.31l0,0l0.32,-1.2q0,0 0.03,-0.03q0.03,-0.03 0.03,-0.03l0,0q0.31,-0.38 0.38,-0.76l0,0q0.19,-0.44 0.19,-0.94q0,-0.5 0,-0.63l0,0l0,-0.13q0,-0.5 -0.38,-0.88l0,0q-0.76,-0.63 -1.2,-0.88l0,0q-0.19,-0.13 -0.56,-0.13l0,0q-0.45,0 -0.63,0.13l0,0q-0.19,0 -0.32,-0.06l0,0q-0.12,-0.07 -0.31,-0.19q-0.19,-0.13 -0.32,-0.13q-0.12,0 -0.31,0.19l0,0q-0.26,-0.25 -0.44,-0.25l0,0q-0.26,0 -0.38,0.38l0,0q-0.19,0.63 -0.69,0.63l0,0l0,0.5l-0.13,1.39l0.13,0.25l-0.07,0.25l0,0.82q0,0.44 0.1,1.07q0.09,0.63 0.15,1.07l0,0q0.07,0.5 0.07,1.57l0,0q0,0.19 -0.13,0.19l0,0q-0.19,0.07 -0.5,0.07l0,0q-0.51,0.06 -1.26,0.18q-0.76,0.13 -1.7,0.19l0,0q-1.77,0.25999 -2.65,0.25999l0,0q-0.44,0 -1.13,0.06q-0.69,0.06001 -1.13,0l0,0q-0.26,0 -0.66,0.06001q-0.41,0.06 -0.73,0l0,0q-0.06,0 -0.19,0.12999l0,0l-0.5,0.25q0,0 -0.25,0.25l0,0q-0.13,0.38 -0.26,0.88l0,0l0,0.25q0,0.26 0.38,0.38l0,0q0.51,0.19 0.66,0.66q0.16,0.48 0.22,0.54l0,0q0.13,0.19 0.22,0.44q0.1,0.25 0.35,0.57l0,0q0.06,0.06 0.25,0.34q0.19,0.29 -0.12,0.6l0,0l0.5,0.13q0.44,0.12 0.5,0.31l0,0q0.19,0.25 0.63,0.25l0,0l0.38,0l0.51,-0.25q0.12,-0.06 0.22,-0.19q0.09,-0.12 0.28,-0.19l0,0q0.5,-0.06 1.57,-0.06l0,0q0.38,-0.06 0.73,-0.03q0.34,0.03 0.66,-0.03l0,0l1.57,-0.25q0.13,0 0.19,0.06l0,0q0,0.12 -0.12,0.12l0,0l-0.82,0.51q-0.25,0.19 -0.82,0.69q-0.57,0.5 -0.95,0.69l0,0l-0.25,0.19q-0.19,0.19 -1.01,0.7l0,0q-0.18,0.12 -0.44,0.22q-0.25,0.09 -0.5,0.28l0,0q-0.5,0.5 -0.57,0.94l0,0q-0.12,0.38 -0.25,0.51l0,0q-0.12,0.38 -0.5,1l0,0q-0.25,0.57 -0.32,1.01l0,0q-0.06,0.07 -0.06,0.16q0,0.09 0.06,0.16l0,0l0.44,0.88q0.26,0.38 0.32,0.63l0,0q0.06,0.19 0.06,0.69l0,0q0,0.32 -0.06,0.51l0,0q-0.13,0.31 0.31,0.31l0,0l1.39,0l1.01,-0.06q0.5,0 0.75,0.19l0,0l0.13,0q0.82,-0.07 2.45,-0.32l0,0q0.32,-0.06 0.73,-0.12q0.41,-0.07 0.97,-0.07l0,0q1.26,-0.19 2.46,-0.19l0,0q1.89,0 2.96,-0.44l0,0l0.06,-0.06l0.19,0.06q0.25,0 0.6,-0.25q0.35,-0.25 0.53,-0.25l0,0l0.13,-0.19q0.13,-0.13 0.13,-0.19l0,0q0.69,-0.69 0.94,-1.07l0,0q0.13,-0.25 0.41,-0.35q0.28,-0.09 0.54,-0.03l0,0q0.37,0.13 0.56,0.13l0,0q0.25,0.12 0.44,-0.06l0,0l1.01,-0.95l0.13,-0.31q0.12,-0.89 0.12,-1.2l0,0q-0.06,-0.82 -0.34,-1.23q-0.29,-0.41 -1.04,-0.79l0,0q-0.19,-0.06 -1.26,-0.69l0,0q-0.07,-0.06 -0.25,-0.06l0,0q-0.44,0 -0.63,0.38l0,0q0,0.06 -0.1,0.06q-0.09,0 -0.16,0.06l0,0q0,0 -0.03,-0.03q-0.03,-0.03 -0.03,-0.03l0,0q-0.38,0.44 -0.38,1.01l0,0q0,0.31 -0.06,0.38l0,0q-0.06,0.12 -0.35,0.53q-0.28,0.41 -0.66,0.6l0,0q-0.12,0.06 -0.41,0.34q-0.28,0.29 -0.66,0.29l0,0q-0.38,0.06 -1.19,0.06l0,0q-0.38,0 -0.57,0.13l0,0q-0.25,0.12 -0.38,-0.07l0,0l-0.19,-0.06l-1.19,0.13l-1.14,0.06l-1.13,0.13l-1.45,0.12l0,-0.12q0,-0.07 0.13,-0.19l0,0q0.06,-0.07 1.19,-1.01l0,0l1.77,-1.32q0.44,-0.44 0.44,-0.44l0,0q0.06,-0.07 0.15,-0.22q0.1,-0.16 0.29,-0.29l0,0q0.31,-0.12 0.69,-0.34q0.38,-0.22 0.88,-0.48l0,0q0.25,-0.12 0.38,-0.12l0,0q0.32,-0.06 0.5,-0.19q0.19,-0.13 0.26,-0.44l0,0q0.12,-0.51 0,-1.01l0,0q-0.07,-0.25 -0.04,-0.31q0.04,-0.07 0.29,-0.13l0,0q1.76,-0.13 2.77,-0.25l0,0q0.94,-0.06 3.27,-0.32l0,0q1.77,-0.25 2.52,-0.56l0,0l0.25,-0.13q0.19,-0.06 0.44,-0.19q0.26,-0.12 0.63,-0.19l0,0q0.95,-0.06 1.58,-1l0,0q0.06,-0.13 0.12,-0.29q0.07,-0.16 0.26,-0.34l0,0l0.25,-0.19q0.19,0 0.19,-0.07l0,0q0.12,-0.18999 0.34,-0.18999q0.22,0 0.29,0l0,0q0.12,-0.06001 0.25,-0.03001q0.12,0.03001 0.19,-0.03l0,0q0.25,-0.18999 0.69,-0.75l0,0zm-58.31,11.27001q0.19,0.19 0.31,0.12l0,0l0.19,-0.06q0.19,0 0.35,0.16q0.16,0.16 0.22,0.22l0,0q0.25,0.19 0.6,0.31q0.34,0.13 0.66,0l0,0l1.76,-0.56l1.2,-0.32l2.08,-0.5l1.13,-0.38q0.82,-0.25 1.13,-0.69l0,0l0.76,-0.57q0.06,-0.06 0.44,-0.25l0,0q1.2,-0.95 1.7,-1.13l0,0q0.13,-0.07 0.25,-0.22q0.13,-0.16 0.19,-0.23l0,0q0.44,-0.44 0.51,-0.44l0,0q0.18,-0.06 0.25,-0.31l0,0q0,-0.19 0.12,-0.32l0,0q0.13,-0.18 0.26,-0.31q0.12,-0.13 0.18,-0.25l0,0q-0.12,-0.13 -0.22,-0.25q-0.09,-0.13 -0.22,-0.26l0,0q-0.44,-0.44 -0.56,-0.5l0,0q-0.07,-0.06 -0.26,0.03q-0.18,0.1 -0.25,0.1l0,0l-0.31,0.06l-1.01,0.25l-1.45,0.32q-0.19,0 -0.5,0.06q-0.32,0.06 -0.51,0.12l0,0q-1,0.32 -1.76,0.26l0,0l-0.31,-0.19l0.19,-0.25q0.25,-0.19 0.5,-0.32q0.25,-0.12 0.5,-0.31l0,0l1.33,-1.01l1.25,-0.82l1.39,-0.82l0.5,-0.38l1.26,-0.82q0.13,-0.06 0.29,-0.22q0.15,-0.15 0.34,-0.22l0,0q0.38,-0.18 1.01,-0.31q0.63,-0.13 0.95,-0.25l0,0q0.06,-0.07 0.15,-0.1q0.1,-0.03 0.03,-0.09l0,0l0,-0.63q0,-0.44 -0.06,-0.57l0,0q-0.69,-1.13 -1.57,-1.45l0,0l-0.19,-0.25q-0.19,-0.19 -0.51,-0.38q-0.31,-0.18 -0.5,-0.12l0,0l-0.13,0l-0.94,0.56l-1.2,0.7q-0.19,0.12 -0.41,0.25q-0.22,0.13 -0.47,0.31l0,0q-0.12,0.13 -0.47,0.35q-0.35,0.22 -0.47,0.47l0,0q-0.13,0.19 -0.44,0.32q-0.32,0.12 -0.38,0.25l0,0q-0.13,0.13 -0.25,0.22q-0.13,0.09 -0.26,0.22l0,0q-0.12,0 -0.66,0.41q-0.53,0.41 -0.66,0.66l0,0l-0.25,0l-0.5,0.38l-0.57,0.5l-0.44,0.19l-0.69,0.63q-0.13,0.13 -1.2,0.82l0,0l-0.19,0.19q-0.31,0.31 -0.44,0.38l0,0q-0.13,0.06 -0.38,0.19q-0.25,0.12 -0.38,0.44l0,0q-0.18,0 -0.25,0.06l0,0q-0.88,0.31 -1.57,1.01l0,0q-0.06,0.06 -0.06,0.37l0,0q0,0.07 0.03,0.13q0.03,0.06 -0.03,0.13l0,0q-0.38,0.5 -0.38,0.81l0,0q0,0.13 -0.1,0.29q-0.09,0.16 -0.15,0.28l0,0q-0.13,0.51 -0.07,0.69l0,0q0.19,0.38 0.7,1.14l0,0q0.06,0.12 0.31,0.53q0.25,0.41 0.25,0.85l0,0q-0.06,0 -0.34,-0.03q-0.29,-0.03 -0.35,0.35l0,0zm8.5,5.41l0.25,-0.25l1.07,-0.82l0.63,-0.5l1.95,-1.45l1.33,-0.88l1.51,-1.13q0.31,-0.26 0.63,-0.54q0.31,-0.28 0.63,-0.53l0,0l0.82,-0.7q0.12,-0.12 0.28,-0.28q0.16,-0.16 0.35,-0.28l0,0l0.81,-0.82l0.89,-0.63q0.19,-0.19 0.63,-0.73q0.44,-0.53 0.88,-0.66l0,0l0,-0.06l2.08,-1.89q0.37,-0.38 0.56,-0.44l0,0q0.32,-0.06 0.6,-0.38q0.28,-0.31 0.47,-0.44l0,0l0,-0.13q0.13,-0.37 0.13,-0.62l0,0q0,-0.63 -0.44,-1.11q-0.44,-0.47 -1.07,-0.47l0,0q-0.63,0 -0.76,-0.57l0,0q-0.06,-0.18 -0.38,-0.18l0,0q-0.18,0 -0.47,0.06q-0.28,0.06 -0.53,0.06l0,0q-0.13,0 -0.19,-0.06l0,0l-0.19,0q-0.32,0 -0.66,0.06q-0.35,0.06 -0.66,0.06l0,0q-1.96,0 -3.21,0.32l0,0q-0.13,0 -0.38,0.12l0,0l-0.76,0.57q-0.44,0.32 -0.06,0.69l0,0l0.44,0.32l0.31,0.25l1.07,1.07q0.19,0.13 0.19,0.22q0,0.1 -0.19,0.22l0,0l-0.37,0.38l-0.7,0.63q-0.75,0.57 -0.81,0.63l0,0q0,0 -0.7,0.69l0,0l-1.7,1.39q0.25,-0.19 -2.58,2.01l0,0l-1.83,1.39q-0.88,0.69 -2.64,2.19999l0,0q-0.06,0.06 -1.64,1.45l0,0q-0.19,0.19 -0.66,0.63q-0.47,0.44 -0.97,0.69l0,0q-0.13,0.07 -0.41,0.29q-0.29,0.22 -0.6,0.15l0,0q-0.06,0 -0.13,0.07q-0.06,0.06 -0.06,0.19l0,0q-0.06,0.5 -0.57,0.81l0,0q-0.25,0.19 -0.12,0.38l0,0l-0.32,-0.06q-0.19,0.19 -0.19,0.19l0,0q-0.06,0.12 -0.06,0.31l0,0q0,0.32 0.25,0.57l0,0q0.32,0.19 0.19,0.5l0,0q-0.13,0.32 -0.13,1.01l0,0q0,0.5 0.26,1.51l0,0q0.12,0.51 0.12,0.76l0,0l-0.06,1.26l0.25,0q0.69,0 2.08,-0.13l0,0q0.63,0 0.94,-0.25l0,0q0.32,-0.25 0.73,-0.32q0.41,-0.06 0.6,-0.12l0,0l1.13,-0.19l2.2,-0.57q0.89,-0.25 1.26,-0.44l0,0q0.38,-0.25 1.26,-0.5l0,0l0.7,-0.25q0.69,-0.32 1.25,-0.51l0,0q0.57,-0.19 1.7,-0.31l0,0q0.19,-0.07 0.45,-0.16q0.25,-0.09 0.44,-0.09l0,0l0.19,0q0.94,0 1.51,-0.7l0,0q0.25,-0.31 0.56,-0.5l0,0q0.38,-0.32 0.57,-0.76l0,0q0.06,-0.19 0.25,-0.59q0.19,-0.41 0.63,-0.54l0,0q0.19,-0.06 0.22,-0.22q0.03,-0.16 -0.16,-0.35l0,0q-0.06,-0.06 -0.06,-0.22q0,-0.15 0.06,-0.28l0,0q0.07,-0.13 0.13,-0.32q0.06,-0.18 0.13,-0.31l0,0q0,-0.19 0.12,-0.31l0,0q0.07,-0.13 0.16,-0.23q0.09,-0.09 0.16,-0.15l0,0l0,-0.13q0,-0.25 0.15,-0.53q0.16,-0.29 0.23,-0.41l0,0q0.12,-0.38 0.12,-0.57l0,0l-0.44,-0.06q-0.06,-0.06999 -0.19,-0.06999l0,0q-0.57,0 -1.57,-0.12001l0,0l-0.63,-0.06q-0.19,0 -0.47,0.18001q-0.29,0.18999 -0.48,0.25999l0,0q-0.12,0.06 -0.41,0.25q-0.28,0.19 -0.47,0.25l0,0q-0.25,0.06 -0.66,0.35q-0.41,0.28 -0.6,0.34l0,0l-0.12,0.19q0,0 -0.04,0.03q-0.03,0.03 -0.03,0.03l0,0q-0.37,0.19 -0.44,0.26l0,0q-0.12,0.06 -0.38,0.22q-0.25,0.15 -0.44,0.15l0,0q-0.37,0.07 -1.13,0.44l0,0l-0.5,0.19l-0.51,0.19q-0.25,0.07 -0.5,0.13q-0.25,0.06 -0.5,0.12l0,0q-0.51,0.32 -1.58,0.19l0,0l0,0.00001zm34,1.88999q-0.25,0.38 -0.37,0.44l0,0q-0.26,0.07 -0.44,0.32q-0.19,0.25 -0.32,0.38l0,0q-0.12,0.12 -0.19,0.41q-0.06,0.28 -0.06,0.4l0,0l-0.38,2.02q-0.19,1.07 -0.19,3.27001l0,0l0.07,1.88999l0,1.7l0.06,1.01l0.12,1.95q0,0.13 0.07,0.32q0.06,0.19 0.06,0.38l0,0q0.06,0.25 0.06,0.66q0,0.41 0.07,0.66l0,0q0.06,0.82 0.5,1.64l0,0q0.31,0.69 1.01,1.63l0,0q0.12,0.25 0.44,0.6q0.31,0.35 0.38,0.72l0,0q0.06,0 0.09,0.04q0.03,0.03 0.03,0.09l0,0q0.25,0.13 0.25,0.32l0,0q0.38,1 1.39,1.7l0,0q0.94,0.69 2.71,1.13l0,0q0.31,0.13 0.85,0.19q0.53,0.06 0.85,0.12l0,0q0.19,0.07 0.47,0.13q0.28,0.06 0.66,0.06l0,0l0.38,0q0.57,0 1.7,-0.25l0,0q0.63,-0.06 1.38,-0.5l0,0l1.77,-1.14l0.31,-0.19q0.19,-0.12 0.51,-0.44q0.31,-0.31 0.63,-0.44l0,0q0.25,-0.12 0.69,-0.75l0,0q0.12,-0.19 0.12,-0.35q0,-0.16 -0.18,-0.22l0,0q0,0 -0.04,-0.03q-0.03,-0.03 -0.03,-0.03l0,0l0,-0.06q0,-0.26 -0.22,-0.35q-0.22,-0.1 -0.28,-0.16l0,0q-0.13,-0.12 -0.32,-0.12l0,0q-0.63,0.18 -0.81,0.25l0,0q-0.57,0.38 -1.26,0.41q-0.7,0.03 -0.95,0.03l0,0q-0.88,0.06 -1.54,0.03q-0.66,-0.03 -1.04,-0.03l0,0l-0.82,0q-0.5,0 -0.82,-0.06l0,0q-0.19,-0.07 -0.5,-0.07q-0.32,0 -0.76,-0.12l0,0q-1.19,-0.26 -1.95,-0.7l0,0q-0.88,-0.63 -1.32,-1l0,0q-0.38,-0.32 -0.6,-0.89q-0.22,-0.56 -0.35,-1.07l0,0l-0.31,-1.26l-0.38,-1.76l-0.19,-1.7q-0.06,-0.25 -0.12,-0.53q-0.07,-0.29 -0.07,-0.73l0,0l0,-1.64l0.13,-1.19q0.06,-0.44 0.16,-0.84999q0.09,-0.41 0.15,-0.85l0,0q0.07,-0.32 0.1,-0.76q0.03,-0.44 0.16,-0.75l0,0q0.12,-0.32 0.15,-0.79q0.03,-0.47 0.03,-0.72l0,0l0,-0.13q0,-0.76 -0.81,-1.57l0,0q-0.19,-0.26 -0.48,-0.45q-0.28,-0.18 -0.41,-0.25l0,0l0,-0.00001zm-6.04,2.65q-0.06,0.25 -0.25,0.44l0,0l-0.7,0.44l-0.06,0.19l-0.31,1.19q-0.32,1.39 -0.63,2.4l0,0l-0.19,0.82l-0.44,1.44l-0.44,2.21l-0.25,1.51l-0.13,0.63q0,0.63 -0.06,0.88l0,0l0,0.13q0,0.19 0.09,0.47q0.1,0.28 0.16,0.41l0,0q0,0.06 0.19,0.06l0,0q0.12,0.06 0.25,0.03q0.12,-0.03 0.25,0.03l0,0q0.32,0.32 0.82,0.51l0,0q0.13,0.06 0.28,0q0.16,-0.07 0.22,-0.25l0,0l0.13,-0.38q0.06,-0.13 0.12,-0.22q0.07,-0.1 0.07,-0.29l0,0q0.12,-0.5 0.44,-1.95l0,0q0.25,-1.01 0.44,-1.45l0,0l0.82,-2.25999l0.56,-1.7l0.38,-1.96q0,-0.18 0.13,-0.56q0.12,-0.38 0,-0.69l0,0l0,-0.07l0.12,-0.25q0,-0.19 -0.06,-0.28q-0.06,-0.1 -0.12,-0.22l0,0q-0.51,-0.76 -1.83,-1.26l0,0l0,-0.00001zm-18.26,4.91q-0.32,0.12 -0.38,0.06l0,0q-0.25,0 -0.38,-0.19l0,0q-0.12,-0.12 -0.22,-0.31q-0.09,-0.19 -0.22,-0.31999l0,0q-0.12,-0.25 -0.25,-0.28q-0.13,-0.03 -0.25,0.03q-0.13,0.06 -0.19,0.12999l0,0l-0.32,0.19q-0.06,0.06 -0.22,0.09q-0.15,0.03001 -0.22,0.1l0,0q-0.25,0.25 -0.63,0.25l0,0l-0.75,0q-0.57,0 -0.88,0.19l0,0l-0.19,0.06q-0.19,0 -0.7,0.12l0,0l-0.69,0.32l-2.77,0.82l-2.71,0.75q-0.12,0 -0.28,0.07q-0.16,0.06 -0.28,0.06l0,0l-2.58,0.57q-0.32,0.06 -0.7,0l0,0q-0.12,0 -0.38,0.12l0,0q-0.25,0.13 -0.4,0.29q-0.16,0.15 -0.29,0.28l0,0q-0.25,0.19 -0.38,0.63q-0.12,0.44 -0.06,0.75l0,0q0.13,0.26 0.13,0.45l0,0l-0.25,0.5q0.25,0.13 0.37,0.13l0,0l0.44,0.12q0.38,0.32 0.7,0.69l0,0q0.06,0.07 0.25,0.29q0.19,0.22 0.19,0.47l0,0q0.06,0.13 0.28,0.25q0.22,0.13 0.28,0.19l0,0l0.95,0.5l0.44,0.13q0.06,0 0.31,0q0.26,0 0.38,-0.19l0,0q0,0 0.03,-0.03q0.04,-0.03 0.04,-0.03l0,0q0.25,0.06 0.44,-0.25l0,0q0.12,-0.32 0.44,-0.44l0,0l1.57,-0.63q0.95,-0.32 1.2,-0.45l0,0l1.76,-0.62q1.07,-0.32 1.39,-0.45l0,0q1.26,-0.37 1.82,-0.63l0,0q0.51,-0.18 0.98,-0.63q0.47,-0.44 0.72,-0.62l0,0q0.38,-0.51 0.32,-1.01l0,0q-0.07,-0.07 -0.03,-0.16q0.03,-0.09 0.09,-0.09l0,0q0.06,-0.07 0.35,-0.35q0.28,-0.28 0.66,-0.35l0,0q0.5,-0.12 0.56,-0.56l0,0q0,-0.32 0.13,-0.32l0,0q0.25,-0.06 0.28,-0.31q0.04,-0.26 0.1,-0.38l0,0z" fill="#2D7827" stroke="#2D7827" stroke-width="0.105" data-glyph-w="62.97" data-glyph-h="75.564" data-glyph-ascender="62.97" data-glyph-descender="-12.594" id="svg_89"/>
     </g>
    </svg>
   </g>
  </g>
  <g id="shape_eO6GBuWcog" ref="shape_eO6GBuWcog" key="shape_eO6GBuWcog" transform="translate(327.9753723144531,137.86093139648438) scale(1) " display="inline">
   <g display="inline" id="svg_6">
    <svg version="1.1" width="140" height="203" viewBox="0 0 140 203" preserveAspectRatio="none" data-parent="shape_eO6GBuWcog" id="svg_96" x="-237.104245" y="-199.088209" xmlns="http://www.w3.org/2000/svg" xmlns:xlink="http://www.w3.org/1999/xlink">
     <rect fill="rgba(0,0,0,0)" width="28" height="33" x="28" y="85" id="svg_99"/>
     <g data-width="28" id="svg_97">
      <path d="m38.47,97.66l0.06,-0.11q0.05,-0.05 0.11,-0.15q0.06,-0.1 0.14,-0.16l0,0q0.36,-0.19 0.64,-0.22l0,0q0.51,-0.11 1.57,-0.22l0,0q0.17,-0.03 0.25,0.05l0,0l0.65,0.53q0.78,0.7 1.54,1.04l0,0l0.33,0.17q-0.19,0.19 -0.19,0.19l0,0q-0.11,0.06 -0.37,0.2q-0.25,0.14 -0.47,0.2l0,0q-0.34,0.11 -0.48,0.36l0,0q0,0.06 0.03,0.11q0.03,0.06 0,0.09l0,0l-0.14,0.11q0.08,0.11 0.14,0.11l0,0l0.34,0.03q0.02,0 0.07,0.01q0.04,0.02 0.09,-0.01l0,0l1.1,-0.56l0.98,-0.51q0.08,-0.05 0.16,0l0,0l0.4,0.09q0.75,0.14 0.81,0.17l0,0q0.78,0.19 1.45,0.11l0,0q0.23,-0.03 0.76,-0.03l0,0q0.56,-0.06 0.78,-0.11l0,0q0.03,0 0.45,-0.09l0,0q0.17,-0.02 0.53,-0.02l0,0q0.12,-0.06 0.12,-0.12l0,0q0,-0.08 -0.06,-0.14l0,0q-0.06,-0.05 -0.36,-0.19l0,0q-0.17,-0.09 -0.4,-0.11q-0.22,-0.03 -0.33,-0.06l0,0q-0.25,-0.06 -0.98,-0.2l0,0l-1.57,-0.44l-0.28,-0.12l0.53,-0.47l0.42,-0.31q0.17,-0.11 0.51,-0.28l0,0q0.08,-0.08 0.08,-0.11l0,0q-0.06,-0.34 -0.11,-0.45l0,0q-0.03,-0.03 -0.07,-0.03q-0.04,0 -0.07,-0.03l0,0q-0.03,0 -0.09,-0.05l0,0q-0.02,0.03 -0.05,0.05q-0.03,0.03 -0.09,0.03l0,0l-0.08,-0.03q-0.06,0 -0.22,0.17l0,0l-0.09,0.09q-0.56,0.39 -1.26,1.03l0,0q-0.03,0.03 -0.07,0.04q-0.04,0.02 -0.07,-0.01l0,0q-0.39,-0.2 -1.12,-0.64l0,0l-0.36,-0.31q0.42,-0.14 1.2,-0.25l0,0q0.23,-0.03 0.56,-0.06q0.34,-0.03 0.56,-0.08l0,0q0.37,-0.06 1.09,-0.28l0,0q0.06,-0.03 0.17,-0.14l0,0q0.06,0 0.06,-0.06l0,0l0.53,-0.17q0.08,-0.03 0.18,-0.05q0.1,-0.03 0.21,-0.09l0,0q0.34,-0.17 0.48,-0.28l0,0q0.05,-0.03 0.11,-0.1q0.06,-0.07 0.03,-0.15l0,0q-0.06,-0.14 -0.14,-0.17l0,0q-0.37,-0.11 -0.48,-0.14l0,0q-0.28,0 -0.42,0.03l0,0q-0.11,0 -0.18,0.03q-0.07,0.03 -0.13,0.05l0,0q-0.33,0 -0.5,0.03l0,0q-0.53,0.03 -1.74,0.14l0,0q-0.11,0 -0.16,-0.03l0,0q0,-0.08 0.11,-0.18q0.11,-0.1 0.14,-0.15l0,0q0.03,-0.03 0.05,-0.07q0.03,-0.04 0.06,-0.13l0,0q0.03,-0.08 0.06,-0.22q0.02,-0.14 0.02,-0.23l0,0q0.06,-0.28 0.06,-0.39l0,0q0,-0.53 -0.36,-0.98l0,0q-0.12,-0.14 -0.21,-0.19q-0.1,-0.06 -0.27,-0.03l0,0l-0.03,0.25q-0.25,-0.14 -0.25,0.08l0,0q0,0.14 -0.03,0.23l0,0q-0.03,0.05 -0.05,0.11q-0.03,0.06 -0.03,0.11l0,0q0.03,0.06 0.03,0.17l0,0q0,0.06 -0.09,0.39l0,0q-0.05,0.17 -0.05,0.28l0,0l0.02,0.28q0,0.11 0.1,0.18q0.1,0.07 0.21,0.05l0,0q0.14,-0.06 0.2,0.11l0,0q0.05,0.08 0.05,0.31l0,0l-0.05,0.11l-0.81,0.05l-0.87,0.09l-0.93,0.17q-0.11,0 -0.22,-0.06l0,0l-0.25,-0.31q-0.56,-0.78 -0.87,-1.15l0,0q-0.53,-0.67 -0.95,-0.92l0,0q-0.34,-0.22 -0.67,-0.25l0,0l-0.06,0.28q-0.17,-0.09 -0.25,0.08l0,0l0.11,0.23l-0.06,0q-0.16,0 -0.22,0.14l0,0q0.06,0.11 0.11,0.23q0.06,0.13 0.11,0.27l0,0q0.09,0.2 0.14,0.39q0.06,0.2 0.14,0.39l0,0l0.51,0.96q0.05,0.14 -0.09,0.14l0,0l-0.36,0.05l-1.29,0.31l-0.31,-0.03q-0.02,0 -0.12,-0.01q-0.1,-0.02 -0.16,0.1l0,0q-0.02,0.08 -0.11,0.11l0,0q-0.11,0.03 -0.14,0.18q-0.03,0.15 0.03,0.24l0,0q0.03,0 0.03,0.05l0,0q0,0.06 -0.07,0.12q-0.07,0.05 -0.07,0.05l0,0q-0.09,0.09 -0.09,0.17l0,0q0,0.11 0.12,0.2l0,0q0.05,0.02 0.11,0.09q0.05,0.07 0.03,0.16l0,0l0.02,0.05q0.23,0.28 0.37,0.4l0,0q0.14,-0.09 0.19,-0.09q0.06,0 0.17,0.11l0,0zm-4.23,-5.12l-0.44,0.22q-0.34,0.12 -0.48,0.2l0,0q-0.08,0.03 -0.56,0.31l0,0l-0.62,0.42l-0.33,0.22q-0.03,0.03 -0.39,0.31l0,0l-0.17,0.14q-0.06,0.06 -0.16,0.17q-0.09,0.11 -0.18,0.14l0,0q-0.28,0.14 -0.5,0.4q-0.23,0.27 -0.31,0.35l0,0l-0.39,0.45q-0.37,0.37 -0.37,0.65l0,0q-0.02,0.14 -0.07,0.25q-0.04,0.11 -0.07,0.25l0,0q-0.05,0.17 0,0.28l0,0q0.12,0.17 0.17,0.39l0,0q0,0.06 0.03,0.09q0.03,0.02 0.03,0.08l0,0l0.05,0.14q-0.02,0.03 -0.02,0.11l0,0q0,0.09 0.05,0.21q0.06,0.13 0.09,0.21l0,0q0,0.11 0.22,0.17l0,0l0.2,0q0.39,0 0.61,-0.03l0,0q-0.03,-0.08 0,-0.12q0.03,-0.05 0.11,-0.05l0,0q0.06,-0.02 0.2,-0.02l0,0q0.17,0 0.62,-0.06l0,0q0.16,0 0.25,0.03l0,0q0.08,0.03 0.22,0.03l0,0q0.17,0 0.34,-0.09l0,0q0.22,-0.17 0.31,-0.28l0,0q0.11,-0.14 0.11,-0.31l0,0l0,-0.14q0,-0.19 0.08,-0.28l0,0q0.14,-0.14 0,-0.22l0,0q-0.03,0 -0.11,-0.07q-0.08,-0.07 -0.17,0.07l0,0q0,0.03 -0.05,0.06q-0.06,0.02 -0.09,0.02l0,0l-0.11,0.06q-0.03,0.11 -0.2,0.11l0,0q-0.61,0 -1.06,-0.28l0,0l-0.11,-0.05l0.47,-0.4l0.68,-0.61q0.92,-0.79 0.98,-0.81l0,0q0.5,-0.4 0.84,-0.45l0,0q0.3,-0.03 0.47,-0.45l0,0q0.14,-0.25 0.17,-0.5l0,0q0.08,-0.31 0.08,-0.59l0,0q0,-0.11 -0.05,-0.11l0,0q-0.03,-0.03 -0.17,-0.17q-0.14,-0.14 -0.17,-0.34l0,0l-0.03,-0.11zm-2.99,9.32q0.22,-0.28 0.25,-0.33l0,0q0.14,-0.14 0.36,-0.42l0,0q0.2,-0.23 0.65,-0.62l0,0q0.67,-0.59 0.67,-0.59l0,0q0.06,-0.05 0.13,-0.07q0.07,-0.01 0.12,-0.04l0,0l0.39,-0.36q0.62,-0.51 0.93,-0.79l0,0q0.36,-0.28 0.7,-0.61l0,0q0.22,-0.23 0.61,-0.73l0,0l0.76,-0.73q0.11,-0.08 0.13,-0.14q0.01,-0.05 -0.05,-0.19l0,0l-0.08,-0.28q0,-0.06 -0.03,-0.06l0,0q-0.08,-0.11 -0.31,-0.28l0,0q0,0 -0.14,-0.14l0,0q-0.05,-0.06 -0.09,-0.1q-0.05,-0.04 -0.1,-0.07l0,0q-0.06,-0.03 -0.24,-0.08q-0.18,-0.06 -0.35,0.03l0,0l-0.03,0q-0.33,-0.06 -0.47,-0.06l0,0l-0.68,-0.06q-0.11,0 -0.28,-0.01q-0.16,-0.01 -0.39,0.01l0,0q-0.22,0 -0.19,0.17l0,0l-0.09,0.06q-0.03,0.03 -0.12,0.07q-0.1,0.04 -0.07,0.12l0,0l0.56,0.51l0.42,0.45q0.08,0.08 0,0.19l0,0l-0.34,0.37q-0.25,0.19 -0.45,0.44l0,0l-0.59,0.56l-0.25,0.26l-0.64,0.58l-0.09,0.12l-0.5,0.42q-0.08,0.05 -0.18,0.15q-0.1,0.1 -0.18,0.15l0,0q-0.09,0.03 -0.37,0.31l0,0q-0.11,0.11 -0.11,0.11l0,0l-0.67,0.84l-0.11,0.09l-0.26,0.17q-0.02,0 -0.04,0.01q-0.01,0.01 -0.04,0.04l0,0q-0.14,0.09 -0.18,0.17q-0.04,0.08 -0.02,0.28l0,0q0,0.06 -0.02,0.08l0,0q-0.14,0.14 0.02,0.34l0,0q0.12,0.14 0.06,0.36l0,0q0,0.28 -0.06,0.9l0,0l-0.02,0.11q-0.12,0.14 0,0.31l0,0q0.11,0.17 0.28,0.17l0,0q0.08,-0.03 0.25,-0.09q0.17,-0.05 0.31,0.06l0,0l0.53,-0.14l0.25,-0.11q0.45,-0.06 0.73,-0.11l0,0l1.4,-0.26q0.78,-0.16 1.15,-0.33l0,0q0.33,-0.11 0.61,-0.24q0.28,-0.13 0.51,-0.21l0,0l0.53,-0.31q0,0 0.08,-0.04q0.09,-0.04 0.03,-0.15l0,0l0.06,-0.12l0.28,-0.25q0,0 0.28,-0.28l0,0q0.02,-0.03 0.02,-0.11l0,0q-0.02,-0.06 0.02,-0.13q0.04,-0.07 0.04,-0.09l0,0q0.06,-0.17 -0.03,-0.31l0,0q-0.08,-0.17 -0.31,-0.11l0,0q-0.11,0.02 -0.29,0.02q-0.18,0 -0.29,0.03l0,0q-0.2,0.06 -0.26,-0.05l0,0q-0.05,0 -0.15,0.09q-0.1,0.1 -0.21,0.05l0,0q-0.42,0.42 -0.42,0.42l0,0q-0.22,0.22 -0.7,0.33l0,0q-0.45,0.11 -0.64,0.14l0,0l-0.54,0.11q-0.67,0.06 -1,0.06l0,0q-0.12,0 -0.45,-0.06l0,0zm8.45,0.68l-0.42,0q-0.11,0 -0.39,0.05l0,0l-0.25,0q-0.14,0 -0.11,-0.11l0,0q0,-0.11 -0.06,-0.28l0,0q0,-0.03 -0.03,-0.06q-0.02,-0.02 -0.05,-0.02l0,0q-0.39,0.05 -0.59,0.05l0,0q-0.06,0 -0.06,0.09l0,0l-0.22,0.47q0,0.03 -0.01,0.07q-0.02,0.04 0.01,0.07l0,0q0.08,0.09 -0.06,0.23l0,0q-0.11,0.08 -0.25,0.33l0,0q-0.11,0.25 -0.14,0.31l0,0q-0.05,0.17 -0.05,0.28l0,0q0,0.28 0.3,0.39l0,0q0.12,0.06 0.34,0.06l0,0q0.34,0 0.53,-0.14l0,0q0.23,-0.14 0.28,-0.14l0,0q0.51,-0.11 0.79,-0.14l0,0l1.09,-0.06l0.05,0q0.12,0 0.23,0.11l0,0l0.42,0.62l0.42,0.59q0.5,0.84 0.78,1.2l0,0q0.14,0.17 0.93,1.12l0,0q0.11,0.11 0.02,0.2l0,0l-0.22,0.19q-0.42,0.37 -0.95,0.7l0,0q-0.11,0.09 -0.21,0.14q-0.1,0.06 -0.21,0.14l0,0q-0.06,0.03 -0.56,0.4l0,0q-0.09,0.05 -0.18,0.09q-0.1,0.05 -0.21,0.13l0,0q-0.59,0.45 -0.65,0.48l0,0q-0.17,0.14 -0.56,0.36l0,0l-0.56,0.39q-0.17,0.14 -0.31,0.23q-0.14,0.08 -0.25,0.16l0,0l-0.08,0.12l-0.65,0.3q-0.02,0 -0.08,0.03q-0.06,0.03 -0.08,0.06l0,0q-0.09,0.14 -0.27,0.22q-0.18,0.09 -0.29,0.17l0,0q-0.06,0.03 -0.24,0.17q-0.18,0.14 -0.38,0.19l0,0q-0.03,0 -0.08,0.06l0,0q-0.06,0.11 -0.09,0.11l0,0q-0.08,0.03 -0.18,0.11q-0.1,0.09 -0.18,0.12l0,0q-0.06,0.02 -0.18,0.15q-0.13,0.13 -0.3,0.07l0,0l-0.05,0.03q-0.09,0.08 -0.17,0.12q-0.09,0.05 -0.14,0.1l0,0l-0.25,0.17q-0.17,0.11 -0.28,0.15q-0.12,0.05 -0.26,-0.04l0,0l-0.02,0l-0.06,0.14q-0.17,0.23 -0.17,0.39l0,0q0,0.12 -0.11,0.28l0,0q-0.08,0.06 -0.08,0.2l0,0q0.08,0.17 -0.12,0.22l0,0q-0.02,0 -0.07,-0.01q-0.04,-0.01 -0.07,0.01l0,0q-0.02,0.06 -0.07,0.16q-0.04,0.1 -0.01,0.18l0,0q0.03,0.08 0.01,0.14q-0.01,0.06 -0.01,0.11l0,0q0.11,0.14 0.28,0.09l0,0q0.08,-0.03 0.27,-0.07q0.18,-0.05 0.29,-0.1l0,0q1.15,-0.56 1.37,-0.7l0,0q0.34,-0.17 0.95,-0.56l0,0l0.79,-0.45q0.19,-0.14 0.39,-0.28q0.2,-0.14 0.39,-0.28l0,0q0.23,-0.11 0.95,-0.64l0,0l1.01,-0.7q0,0 1.01,-0.68l0,0l0.84,-0.58l1.18,-0.87l1.14,-0.87q0.09,-0.08 0.12,-0.03l0,0q0.47,0.34 0.56,0.42l0,0q0.14,0.09 0.78,0.67l0,0l1.12,0.82q0.7,0.42 0.81,0.47l0,0q0.37,0.2 0.65,0.31q0.28,0.11 0.44,0.2l0,0q0.14,0.05 0.7,0.28l0,0q0.79,0.28 1.32,0.39l0,0q0.67,0.11 0.98,0.11l0,0q0.17,0 0.42,-0.01q0.25,-0.02 0.59,0.01l0,0l0.05,0q0.17,0 0.35,-0.07q0.19,-0.07 0.24,-0.1l0,0q-0.22,-0.22 -0.22,-0.22l0,0q-0.03,-0.03 0,-0.11l0,0q0.17,-0.09 0.19,-0.09l0,0l0.34,0q0.2,-0.05 0.2,-0.11l0,0q0,-0.17 0.14,-0.25l0,0q0.05,-0.06 0.11,-0.17l0,0q0.08,0 0.11,-0.03l0,0l0.45,-0.11q0.14,0 0.14,-0.11l0,0q-0.06,-0.17 0.05,-0.2l0,0q0.06,-0.05 0,-0.17l0,0q0,-0.02 -0.05,-0.08l0,0q0.11,-0.08 0.11,-0.22l0,0q0,-0.09 -0.08,-0.2l0,0q0.05,-0.06 0.08,-0.06l0,0q0.2,0.03 0.17,-0.16l0,0l0.03,-0.09q0.16,-0.17 0.16,-0.17l0,0q0.14,-0.14 -0.02,-0.16l0,0q-0.06,0 -0.06,-0.06l0,0q0,-0.06 -0.01,-0.13q-0.02,-0.07 0.01,-0.15l0,0q0.03,-0.06 0.03,-0.2l0,0q0,-0.16 -0.03,-0.28q-0.03,-0.11 -0.06,-0.19l0,0q0,-0.09 -0.05,-0.09l0,0q-0.09,-0.05 -0.2,-0.22l0,0q-0.03,-0.06 -0.1,-0.08q-0.07,-0.03 -0.09,0.02l0,0q-0.09,0.26 -0.34,0.06l0,0q0.03,0.08 0.03,0.2l0,0q0,0.25 -0.25,0.3l0,0l-0.03,0.51q0,0.14 -0.14,0.11l0,0q-0.45,-0.14 -0.81,-0.22l0,0q-1.01,-0.28 -1.52,-0.45l0,0q-0.67,-0.2 -1.2,-0.42l0,0q-0.28,-0.11 -0.84,-0.39l0,0q-0.95,-0.45 -1.2,-0.59l0,0q-0.2,-0.11 -0.93,-0.56l0,0q-0.14,-0.09 -0.42,-0.31l0,0q0.23,-0.22 0.87,-0.67l0,0q0.08,-0.06 0.15,-0.06q0.07,0 0.1,-0.03l0,0q0.45,-0.19 0.56,-0.3l0,0q0.28,-0.31 0.45,-1.07l0,0q0.03,-0.05 0.01,-0.12q-0.01,-0.07 -0.07,-0.1l0,0q-0.08,-0.09 -0.14,-0.25l0,0q-0.05,-0.23 -0.22,-0.09l0,0l-0.62,0.48l-0.22,0.17l-0.78,0.53l-0.51,0.42q-0.05,0.03 -0.18,0.11q-0.13,0.08 -0.15,0.17l0,0q-0.12,0.11 -0.26,0.03l0,0q-0.5,-0.28 -0.84,-0.62l0,0l-0.75,-0.7l-0.48,-0.42q-0.05,-0.06 -0.22,-0.25l0,0q0.19,-0.03 0.47,-0.03l0,0q0.17,-0.03 0.49,-0.06q0.33,-0.02 0.55,-0.11l0,0l0.31,-0.08q0.11,0 0.33,-0.03q0.23,-0.03 0.37,-0.06l0,0q0.03,-0.02 0.18,-0.07q0.15,-0.04 0.21,-0.18l0,0q0.03,-0.03 0.1,-0.07q0.07,-0.04 0.1,-0.04l0,0q0.02,-0.03 0.09,-0.04q0.07,-0.02 0.1,-0.04l0,0q0.09,-0.12 0.3,-0.24q0.21,-0.13 0.29,-0.21l0,0q0,0 0.06,-0.06l0,0l-0.09,-0.08l-0.19,-0.14q-0.14,-0.23 -0.34,-0.23l0,0l-0.22,-0.05q-0.09,-0.03 -0.19,-0.06q-0.09,-0.03 -0.23,-0.03l0,0q-0.2,0 -0.59,0.06l0,0q-0.45,0.06 -0.65,0.06l0,0q-0.16,0.02 -0.5,0.02l0,0q-0.03,0 -0.08,-0.05l0,0q0,-0.09 0.05,-0.09l0,0l0.25,-0.11l0.09,-0.03q0.03,-0.02 0.07,-0.05q0.04,-0.03 0.1,-0.03l0,0l0.7,-0.17q0.08,0 0.14,-0.05l0,0l0.25,-0.28l0.22,-0.26q0.09,-0.11 -0.08,-0.16l0,0l-0.25,0q-0.14,0 -0.23,-0.03l0,0q-0.22,-0.09 -0.68,-0.23q-0.47,-0.14 -0.72,-0.36l0,0l-0.25,0.28q-0.14,0.14 -0.14,0.17l0,0q0,0.22 -0.25,0.53l0,0q-0.06,0.08 -0.06,0.2l0,0q0,0.14 0.11,0.22l0,0q0,0 0.12,0.11l0,0l0.11,0.45l-0.73,0.06q-0.67,0.05 -0.98,0.11l0,0q-0.11,0 -0.2,-0.11l0,0l-0.81,-1.18l-0.33,-0.45l-0.42,-0.53q-0.23,-0.28 -0.4,-0.31l0,0q-0.02,0 -0.19,-0.05l0,0l-0.11,0.14q-0.06,0.11 -0.12,0.11l0,0q-0.08,0 -0.11,0.07q-0.03,0.07 -0.03,0.1l0,0q-0.02,0.08 -0.07,0.14q-0.04,0.05 -0.15,0.02l0,0l-0.08,0.37l-0.03,0.45q0,0.14 0.05,0.42l0,0q0.06,0.16 0.06,0.28l0,0l0,0.11q0,0.14 0.11,0.47l0,0q0.06,0.12 0.11,0.4l0,0zm-8.28,1.7l-0.28,0.14q-0.62,0.2 -0.79,0.28l0,0q-0.05,0 -0.14,0.09l0,0q-0.08,0.28 -0.36,0.53l0,0q-0.14,0.14 -0.14,0.14l0,0q-0.11,0.11 -0.14,0.17l0,0l-0.06,0.47l-0.08,0.23q-0.06,0.14 -0.03,0.17l0,0q0.06,0.08 0.04,0.21q-0.01,0.12 -0.01,0.18l0,0l0,0.53l0.03,0.25q0.02,0.03 0.07,0.07q0.04,0.04 0.04,0.07l0,0q0,0.23 0.19,0.17l0,0l0.56,-0.14q0.12,-0.03 0.19,-0.07q0.07,-0.04 0.18,-0.07l0,0l1.17,-0.39l0.56,-0.17q0.23,-0.08 0.68,-0.2l0,0l0.75,-0.3l0.59,-0.34q0.06,-0.03 0.08,-0.11q0.03,-0.09 0.09,-0.14l0,0l0.45,-0.48q0.36,-0.36 0.36,-0.36l0,0q0.17,-0.17 0.25,-0.37l0,0l0,-0.02q0,-0.09 -0.03,-0.14q-0.02,-0.06 -0.05,-0.12l0,0q-0.11,0.03 -0.21,0.09q-0.1,0.05 -0.21,0.08l0,0l-1.74,0.34q-0.59,0.11 -1.76,0.28l0,0q-0.11,0.03 -0.34,0.03l0,0q-0.11,0 -0.08,-0.12l0,0l0.05,-0.22q0,-0.06 0.03,-0.17q0.03,-0.11 0.09,-0.14l0,0q0.11,-0.14 0.11,-0.22l0,0q0,-0.11 -0.11,-0.23l0,0z" fill="#ffffff" stroke="#ffffff" stroke-width="0.047" data-glyph-w="28" data-glyph-h="33.6" data-glyph-ascender="28" data-glyph-descender="-5.6" id="svg_98"/>
     </g>
    </svg>
   </g>
  </g>
 </g>
</svg>